<svg width="18" height="20" viewBox="0 0 18 20" fill="none" xmlns="http://www.w3.org/2000/svg">
<path d="M2.07715 6.9231V17.3077C2.07715 18.4528 3.00899 19.3846 4.15407 19.3846H13.8464C14.9915 19.3846 15.9233 18.4528 15.9233 17.3077V6.9231H2.07715ZM6.23099 15.9231C6.23099 16.3053 5.92084 16.6154 5.53869 16.6154C5.15653 16.6154 4.84638 16.3053 4.84638 15.9231V9.69233C4.84638 9.31017 5.15653 9.00002 5.53869 9.00002C5.92084 9.00002 6.23099 9.31017 6.23099 9.69233V15.9231ZM9.69253 15.9231C9.69253 16.3053 9.38238 16.6154 9.00023 16.6154C8.61807 16.6154 8.30792 16.3053 8.30792 15.9231V9.69233C8.30792 9.31017 8.61807 9.00002 9.00023 9.00002C9.38238 9.00002 9.69253 9.31017 9.69253 9.69233V15.9231ZM13.1541 15.9231C13.1541 16.3053 12.8439 16.6154 12.4618 16.6154C12.0796 16.6154 11.7695 16.3053 11.7695 15.9231V9.69233C11.7695 9.31017 12.0796 9.00002 12.4618 9.00002C12.8439 9.00002 13.1541 9.31017 13.1541 9.69233V15.9231Z" fill="#B50000"/>
<path d="M16.6154 2.76923H12.4615V2.07692C12.4615 0.931846 11.5297 0 10.3846 0H7.61539C6.47031 0 5.53846 0.931846 5.53846 2.07692V2.76923H1.38462C0.621 2.76923 0 3.39023 0 4.15385V4.84615C0 5.22831 0.310154 5.53846 0.692308 5.53846H17.3077C17.6898 5.53846 18 5.22831 18 4.84615V4.15385C18 3.39023 17.379 2.76923 16.6154 2.76923ZM6.92308 2.07692C6.92308 1.69546 7.23392 1.38462 7.61539 1.38462H10.3846C10.7661 1.38462 11.0769 1.69546 11.0769 2.07692V2.76923H6.92308V2.07692Z" fill="#B50000"/>
</svg>
