<svg width="160" height="60" viewBox="0 0 289 216" fill="none" xmlns="http://www.w3.org/2000/svg">
<path d="M289 189.306H0.322021V189.45H289V189.306Z" fill="#EBEBEB"/>
<path d="M260.074 198.596H240.952V198.741H260.074V198.596Z" fill="#EBEBEB"/>
<path d="M191.554 200.167H186.537V200.311H191.554V200.167Z" fill="#EBEBEB"/>
<path d="M240.375 193.238H229.296V193.383H240.375V193.238Z" fill="#EBEBEB"/>
<path d="M55.5461 194.208H30.6101V194.352H55.5461V194.208Z" fill="#EBEBEB"/>
<path d="M64.345 194.208H60.6903V194.352H64.345V194.208Z" fill="#EBEBEB"/>
<path d="M130.314 196.645H76.227V196.789H130.314V196.645Z" fill="#EBEBEB"/>
<path d="M137.155 163.557H25.6737C24.8004 163.555 23.9633 163.207 23.3463 162.589C22.7293 161.971 22.3828 161.133 22.3828 160.26V3.54811C22.3904 2.67978 22.7403 1.84951 23.3565 1.23766C23.9726 0.625797 24.8054 0.281761 25.6737 0.280273H137.155C138.03 0.280273 138.868 0.627604 139.486 1.24586C140.105 1.86411 140.452 2.70264 140.452 3.57698V160.26C140.452 161.134 140.105 161.973 139.486 162.591C138.868 163.209 138.03 163.557 137.155 163.557ZM25.6737 0.395745C24.8387 0.397274 24.0383 0.730071 23.4484 1.32109C22.8585 1.91211 22.5271 2.71305 22.5271 3.54811V160.26C22.5271 161.095 22.8585 161.896 23.4484 162.487C24.0383 163.078 24.8387 163.411 25.6737 163.412H137.155C137.991 163.411 138.792 163.078 139.383 162.487C139.974 161.896 140.306 161.095 140.308 160.26V3.54811C140.306 2.71252 139.974 1.91159 139.383 1.32074C138.792 0.729884 137.991 0.397271 137.155 0.395745H25.6737Z" fill="#EBEBEB"/>
<path d="M262.043 163.557H150.556C149.682 163.555 148.844 163.207 148.226 162.589C147.608 161.971 147.261 161.134 147.259 160.26V3.54811C147.268 2.67925 147.619 1.84899 148.236 1.23729C148.854 0.625595 149.687 0.281745 150.556 0.280273H262.043C262.911 0.283278 263.742 0.627986 264.357 1.23968C264.972 1.85138 265.321 2.68078 265.328 3.54811V160.26C265.328 161.132 264.983 161.969 264.367 162.587C263.751 163.205 262.916 163.553 262.043 163.557ZM150.556 0.395745C149.72 0.397271 148.919 0.729884 148.328 1.32074C147.738 1.91159 147.405 2.71252 147.403 3.54811V160.26C147.405 161.095 147.738 161.896 148.328 162.487C148.919 163.078 149.72 163.411 150.556 163.412H262.043C262.879 163.411 263.68 163.078 264.271 162.487C264.861 161.896 265.194 161.095 265.196 160.26V3.54811C265.194 2.71252 264.861 1.91159 264.271 1.32074C263.68 0.729884 262.879 0.397271 262.043 0.395745H150.556Z" fill="#EBEBEB"/>
<path d="M254.849 25.7698C256.574 18.4614 252.047 11.1383 244.739 9.41338C237.43 7.68843 230.107 12.2147 228.382 19.5232C226.657 26.8317 231.184 34.1547 238.492 35.8797C245.801 37.6046 253.124 33.0783 254.849 25.7698Z" fill="#E0E0E0"/>
<path d="M253.051 24.5052C254.074 18.2008 249.793 12.2606 243.489 11.2372C237.184 10.2139 231.244 14.495 230.221 20.7993C229.197 27.1037 233.479 33.0439 239.783 34.0673C246.087 35.0906 252.028 30.8095 253.051 24.5052Z" fill="#F0F0F0"/>
<path d="M241.079 14.7139V22.7969L235.722 19.7657" fill="#F0F0F0"/>
<path d="M241.079 14.7139V22.7969L235.722 19.7657" stroke="#E0E0E0" stroke-width="2" stroke-linecap="round" stroke-linejoin="round"/>
<path d="M75.7593 31.4917H36.1412V103.442H75.7593V31.4917Z" fill="#E6E6E6"/>
<path d="M73.0689 34.3442H39.0049V100.74H73.0689V34.3442Z" fill="#F0F0F0"/>
<path d="M55.8117 34.3442L39.0049 97.2876V63.212L46.6952 34.3442H55.8117Z" fill="#FAFAFA"/>
<path d="M63.3231 34.3442L45.5983 100.74H42.2554L59.9802 34.3442H63.3231Z" fill="#FAFAFA"/>
<path d="M74.5123 80.7578H37.2728V83.0672H74.5123V80.7578Z" fill="#E6E6E6"/>
<path d="M245.271 124.833C245.271 124.833 246.177 118.828 241.807 114.983C237.436 111.138 237.812 108.84 239.064 108.546C240.317 108.251 241.472 112.096 243.395 113.164C243.395 113.164 243.458 107.68 241.501 105.659C239.544 103.638 238.522 98.4304 240.381 98.3438C242.24 98.2572 242.43 101.433 242.817 103.69C243.204 105.948 245.277 109.123 245.277 109.123C245.277 109.123 245.681 104.215 246.945 102.195C248.21 100.174 244.838 95.5551 246.137 93.5344C247.436 91.5136 249.746 95.3646 249.555 99.6948C249.364 104.025 246.472 108.644 247.147 113.164C247.147 113.164 248.423 109.989 249.567 109.7C250.71 109.412 251.876 107.31 252.632 106.531C253.389 105.751 254.364 108.447 252.632 110.953C250.9 113.459 246.472 120.145 247.147 125.555L245.271 124.833Z" fill="#E6E6E6"/>
<path d="M242.65 122.102L241.218 131.097C241.114 131.75 241.152 132.419 241.331 133.055C241.51 133.692 241.825 134.283 242.254 134.786C242.683 135.289 243.217 135.694 243.817 135.971C244.418 136.248 245.071 136.392 245.733 136.392H247.263C247.925 136.392 248.579 136.249 249.18 135.973C249.782 135.696 250.316 135.292 250.746 134.788C251.176 134.285 251.491 133.694 251.67 133.057C251.849 132.42 251.888 131.751 251.784 131.097L250.352 122.102H242.65Z" fill="#E6E6E6"/>
<path d="M248.608 137.425H245.271V189.838H248.608V137.425Z" fill="#E0E0E0"/>
<path d="M236.761 137.425H233.424V189.838H236.761V137.425Z" fill="#E6E6E6"/>
<path d="M260.45 137.425H257.113V189.838H260.45V137.425Z" fill="#E6E6E6"/>
<path d="M262.43 134.077H231.443V139.654H262.43V134.077Z" fill="#E6E6E6"/>
<path d="M144.661 215.38C206.486 215.38 256.605 212.454 256.605 208.844C256.605 205.235 206.486 202.309 144.661 202.309C82.8363 202.309 32.7175 205.235 32.7175 208.844C32.7175 212.454 82.8363 215.38 144.661 215.38Z" fill="#F5F5F5"/>
<path d="M202.397 186.489V122.68H196.046V186.489L192.004 187.73V189.653H206.438V187.73L202.397 186.489Z" fill="#2E353A"/>
<path d="M121.567 122.68H115.216V186.489L111.174 187.73V189.653H125.608V187.73L121.567 186.489V122.68Z" fill="#2E353A"/>
<g opacity="0.2">
<path d="M202.397 130.185H196.046V186.489L192.004 187.73V189.653H206.438V187.73L202.397 186.489V130.185Z" fill="white"/>
<path d="M121.567 130.185H115.216V186.489L111.174 187.73V189.653H125.608V187.73L121.567 186.489V130.185Z" fill="white"/>
</g>
<path d="M222.027 124.989V22.2197L95.5857 22.2197V124.989L222.027 124.989Z" fill="#2E353A"/>
<path opacity="0.2" d="M222.027 124.989V22.2197L95.5857 22.2197V124.989L222.027 124.989Z" fill="white"/>
<path d="M219.215 25.0718H98.3975V122.079H219.215V25.0718Z" fill="#02C0B0"/>
<path opacity="0.3" d="M219.215 25.0718H98.3975V122.079H219.215V25.0718Z" fill="white"/>
<path d="M112.04 33.7666V60.0363H153.904L112.04 33.7666Z" stroke="#263238" stroke-miterlimit="10"/>
<path d="M114.142 60.1058V57.958H111.994" stroke="#263238" stroke-width="0.793303" stroke-miterlimit="10"/>
<path d="M135.406 46.8691C135.079 46.8691 134.762 46.7914 134.454 46.6359C134.149 46.4772 133.936 46.244 133.816 45.9362L134.025 45.7839L133.863 46.7739H133.102V39.6342H133.959V43.0232L133.778 42.8899C133.936 42.6329 134.163 42.4235 134.458 42.2616C134.754 42.0966 135.069 42.0141 135.406 42.0141C135.84 42.0141 136.215 42.1283 136.529 42.3568C136.843 42.5821 137.084 42.8804 137.252 43.2517C137.424 43.6198 137.51 44.0164 137.51 44.4416C137.51 44.8954 137.416 45.3063 137.229 45.6744C137.041 46.0393 136.789 46.3297 136.472 46.5455C136.155 46.7612 135.799 46.8691 135.406 46.8691ZM135.301 46.1076C135.574 46.1076 135.81 46.033 136.01 45.8838C136.21 45.7315 136.364 45.53 136.472 45.2793C136.58 45.0255 136.634 44.7462 136.634 44.4416C136.634 44.1243 136.58 43.8403 136.472 43.5896C136.364 43.3389 136.21 43.1406 136.01 42.9946C135.81 42.8487 135.574 42.7757 135.301 42.7757C135.057 42.7757 134.828 42.8376 134.616 42.9613C134.406 43.0819 134.236 43.2659 134.106 43.5134C133.976 43.7578 133.911 44.0672 133.911 44.4416C133.911 44.8319 133.976 45.1492 134.106 45.3936C134.236 45.6379 134.406 45.8188 134.616 45.9362C134.828 46.0504 135.057 46.1076 135.301 46.1076Z" fill="#263238"/>
<path d="M115.1 86.539C114.773 86.539 114.456 86.4613 114.148 86.3058C113.843 86.1472 113.631 85.9139 113.51 85.6061L113.72 85.4538L113.558 86.4438H112.796V79.3041H113.653V82.6931L113.472 82.5598C113.631 82.3028 113.858 82.0934 114.153 81.9315C114.448 81.7665 114.764 81.684 115.1 81.684C115.535 81.684 115.909 81.7983 116.223 82.0267C116.538 82.252 116.779 82.5503 116.947 82.9216C117.118 83.2897 117.204 83.6863 117.204 84.1115C117.204 84.5653 117.11 84.9762 116.923 85.3443C116.736 85.7092 116.484 85.9996 116.166 86.2154C115.849 86.4312 115.494 86.539 115.1 86.539ZM114.995 85.7775C115.268 85.7775 115.505 85.7029 115.705 85.5538C115.904 85.4014 116.058 85.1999 116.166 84.9493C116.274 84.6954 116.328 84.4162 116.328 84.1115C116.328 83.7942 116.274 83.5102 116.166 83.2595C116.058 83.0088 115.904 82.8105 115.705 82.6646C115.505 82.5186 115.268 82.4456 114.995 82.4456C114.751 82.4456 114.523 82.5075 114.31 82.6312C114.1 82.7518 113.931 82.9359 113.801 83.1834C113.671 83.4277 113.605 83.7371 113.605 84.1115C113.605 84.5018 113.671 84.8192 113.801 85.0635C113.931 85.3078 114.1 85.4887 114.31 85.6061C114.523 85.7204 114.751 85.7775 114.995 85.7775Z" fill="#263238"/>
<path d="M129.491 68.999C128.965 68.999 128.522 68.8927 128.163 68.6801C127.808 68.4643 127.538 68.1756 127.354 67.8138C127.173 67.4489 127.083 67.0443 127.083 66.6001C127.083 66.1368 127.17 65.7195 127.345 65.3482C127.522 64.977 127.794 64.6834 128.159 64.4677C128.524 64.2519 128.99 64.144 129.558 64.144C129.802 64.144 130.032 64.1694 130.248 64.2201C130.467 64.2677 130.662 64.3344 130.834 64.4201L130.7 65.1721C130.526 65.0896 130.34 65.0246 130.143 64.977C129.95 64.9294 129.748 64.9056 129.539 64.9056C129.025 64.9056 128.633 65.0515 128.363 65.3435C128.094 65.6354 127.959 66.0416 127.959 66.562C127.959 67.0697 128.087 67.4774 128.344 67.7853C128.601 68.0931 128.993 68.247 129.52 68.247C129.736 68.247 129.942 68.2216 130.139 68.1708C130.339 68.12 130.529 68.0502 130.71 67.9614L130.824 68.6468C130.697 68.7356 130.512 68.8165 130.267 68.8895C130.023 68.9625 129.764 68.999 129.491 68.999Z" fill="#263238"/>
<path d="M114.948 94.6045C114.421 94.6045 113.978 94.4982 113.62 94.2856C113.264 94.0698 112.995 93.781 112.811 93.4193C112.63 93.0544 112.539 92.6498 112.539 92.2055C112.539 91.7422 112.627 91.325 112.801 90.9537C112.979 90.5824 113.25 90.2889 113.615 90.0731C113.98 89.8573 114.446 89.7495 115.014 89.7495C115.259 89.7495 115.489 89.7748 115.705 89.8256C115.924 89.8732 116.119 89.9398 116.29 90.0255L116.157 90.7776C115.982 90.6951 115.797 90.63 115.6 90.5824C115.406 90.5348 115.205 90.511 114.995 90.511C114.481 90.511 114.089 90.657 113.82 90.9489C113.55 91.2409 113.415 91.647 113.415 92.1674C113.415 92.6752 113.544 93.0829 113.801 93.3907C114.058 93.6985 114.45 93.8524 114.976 93.8524C115.192 93.8524 115.398 93.827 115.595 93.7763C115.795 93.7255 115.985 93.6557 116.166 93.5668L116.28 94.2522C116.154 94.3411 115.968 94.422 115.724 94.495C115.479 94.568 115.221 94.6045 114.948 94.6045Z" fill="#263238"/>
<path d="M109.053 53.1274C108.764 53.1274 108.512 53.0687 108.296 52.9513C108.08 52.8339 107.912 52.6737 107.791 52.4706C107.674 52.2675 107.615 52.0358 107.615 51.7756C107.615 51.5123 107.672 51.287 107.787 51.0997C107.904 50.9093 108.06 50.7523 108.253 50.6285C108.45 50.5016 108.669 50.4016 108.91 50.3286C109.151 50.2525 109.4 50.1985 109.657 50.1668C109.918 50.1319 110.167 50.1129 110.405 50.1097C110.405 49.6654 110.317 49.3751 110.143 49.2386C109.968 49.1022 109.716 49.034 109.386 49.034C109.211 49.034 109.024 49.0609 108.824 49.1149C108.628 49.1688 108.406 49.2815 108.158 49.4528L108.034 48.7579C108.221 48.6151 108.455 48.4993 108.734 48.4104C109.013 48.3184 109.307 48.2724 109.614 48.2724C110.008 48.2724 110.325 48.3422 110.566 48.4818C110.808 48.6183 110.984 48.8499 111.095 49.1768C111.206 49.5036 111.261 49.9479 111.261 50.5095V51.4615C111.261 51.6836 111.271 51.8677 111.29 52.0136C111.312 52.1564 111.36 52.2643 111.433 52.3373C111.509 52.4071 111.629 52.442 111.794 52.442H111.88L111.747 53.1274H111.68C111.404 53.1274 111.19 53.1005 111.038 53.0465C110.889 52.9926 110.774 52.9148 110.695 52.8133C110.616 52.7117 110.544 52.588 110.481 52.442C110.306 52.6451 110.1 52.8101 109.862 52.937C109.624 53.064 109.354 53.1274 109.053 53.1274ZM109.215 52.442C109.443 52.442 109.664 52.3849 109.876 52.2707C110.092 52.1564 110.268 52.0041 110.405 51.8137V50.6999C109.951 50.7158 109.583 50.7602 109.3 50.8332C109.021 50.9062 108.816 51.0156 108.686 51.1616C108.556 51.3076 108.491 51.4964 108.491 51.728C108.491 51.9787 108.558 52.1612 108.691 52.2754C108.828 52.3865 109.002 52.442 109.215 52.442Z" fill="#263238"/>
<path d="M113.891 78.4673C113.602 78.4673 113.35 78.4086 113.134 78.2912C112.918 78.1737 112.75 78.0135 112.63 77.8104C112.512 77.6073 112.454 77.3757 112.454 77.1155C112.454 76.8521 112.511 76.6268 112.625 76.4396C112.742 76.2492 112.898 76.0921 113.091 75.9684C113.288 75.8414 113.507 75.7415 113.748 75.6685C113.989 75.5923 114.239 75.5384 114.496 75.5067C114.756 75.4718 115.005 75.4527 115.243 75.4495C115.243 75.0053 115.156 74.7149 114.981 74.5785C114.807 74.442 114.554 74.3738 114.224 74.3738C114.05 74.3738 113.863 74.4008 113.663 74.4547C113.466 74.5087 113.244 74.6213 112.996 74.7927L112.872 74.0978C113.06 73.955 113.293 73.8391 113.572 73.7503C113.851 73.6583 114.145 73.6123 114.453 73.6123C114.846 73.6123 115.164 73.6821 115.405 73.8217C115.646 73.9581 115.822 74.1898 115.933 74.5166C116.044 74.8435 116.1 75.2877 116.1 75.8494V76.8013C116.1 77.0235 116.109 77.2075 116.128 77.3535C116.15 77.4963 116.198 77.6042 116.271 77.6771C116.347 77.7469 116.468 77.7819 116.633 77.7819H116.718L116.585 78.4673H116.518C116.242 78.4673 116.028 78.4403 115.876 78.3863C115.727 78.3324 115.613 78.2547 115.533 78.1531C115.454 78.0516 115.382 77.9278 115.319 77.7819C115.144 77.9849 114.938 78.1499 114.7 78.2769C114.462 78.4038 114.193 78.4673 113.891 78.4673ZM114.053 77.7819C114.281 77.7819 114.502 77.7247 114.715 77.6105C114.93 77.4963 115.106 77.3439 115.243 77.1536V76.0398C114.789 76.0556 114.421 76.1 114.139 76.173C113.859 76.246 113.655 76.3555 113.525 76.5015C113.394 76.6474 113.329 76.8362 113.329 77.0679C113.329 77.3186 113.396 77.501 113.529 77.6153C113.666 77.7263 113.84 77.7819 114.053 77.7819Z" fill="#263238"/>
<path d="M163.714 34.0552H186.808" stroke="#263238" stroke-miterlimit="10"/>
<path d="M163.714 38.6743H176.416" stroke="#263238" stroke-miterlimit="10"/>
<path d="M163.714 42.1387H181.612" stroke="#263238" stroke-miterlimit="10"/>
<path d="M163.714 46.1802H178.725" stroke="#263238" stroke-miterlimit="10"/>
<path d="M163.714 50.7988H186.231" stroke="#263238" stroke-miterlimit="10"/>
<path d="M163.714 54.8403H185.653" stroke="#263238" stroke-miterlimit="10"/>
<path d="M163.714 58.8818H178.725" stroke="#263238" stroke-miterlimit="10"/>
<path d="M189.695 94.1001H205.283" stroke="#263238" stroke-miterlimit="10"/>
<path d="M189.695 98.7192H198.355" stroke="#263238" stroke-miterlimit="10"/>
<path d="M189.695 102.184H201.819" stroke="#263238" stroke-miterlimit="10"/>
<path d="M189.695 106.225H200.087" stroke="#263238" stroke-miterlimit="10"/>
<path d="M110.597 101.606H126.186" stroke="#263238" stroke-miterlimit="10"/>
<path d="M110.597 106.225H119.257" stroke="#263238" stroke-miterlimit="10"/>
<path d="M110.597 109.689H122.721" stroke="#263238" stroke-miterlimit="10"/>
<path d="M110.597 113.73H120.989" stroke="#263238" stroke-miterlimit="10"/>
<path d="M194.314 42.1387H209.325" stroke="#263238" stroke-miterlimit="10"/>
<path d="M194.314 46.1802H209.325" stroke="#263238" stroke-miterlimit="10"/>
<path d="M194.314 50.2212H204.706" stroke="#263238" stroke-miterlimit="10"/>
<path d="M149.857 101.606H164.868" stroke="#263238" stroke-miterlimit="10"/>
<path d="M149.857 105.647H164.868" stroke="#263238" stroke-miterlimit="10"/>
<path d="M149.857 109.689H160.25" stroke="#263238" stroke-miterlimit="10"/>
<path d="M121.567 75.0479H155.053" stroke="#263238" stroke-miterlimit="10"/>
<path d="M121.567 82.5532H155.053" stroke="#263238" stroke-miterlimit="10"/>
<path d="M121.567 90.0591H155.053" stroke="#263238" stroke-miterlimit="10"/>
<path d="M177.264 94.135C183.084 94.135 187.801 89.4176 187.801 83.5983C187.801 77.779 183.084 73.0615 177.264 73.0615C171.445 73.0615 166.728 77.779 166.728 83.5983C166.728 89.4176 171.445 94.135 177.264 94.135Z" stroke="#263238" stroke-width="0.793303" stroke-miterlimit="10"/>
<path d="M177.282 73.0269V83.7079H187.963" stroke="#263238" stroke-miterlimit="10"/>
<path opacity="0.6" d="M219.215 25.0718H98.3975V122.079H219.215V25.0718Z" fill="white"/>
<path d="M173.679 77.4262L164.765 72.23C163.343 72.3361 161.915 72.2702 160.509 72.0337C158.2 71.6353 157.703 71.6122 157.981 69.7935C158.258 67.9749 157.871 65.55 158.558 65.2959C159.245 65.0419 164.106 67.0915 164.949 68.483L173.944 71.6988L173.679 77.4262Z" fill="#B97964"/>
<path d="M200.087 68.6221V79.0145C200.087 79.0145 197.87 79.7477 195.116 80.5156C191.958 81.3932 188.095 82.317 186.086 82.2477C182.333 82.0629 169.632 75.4695 169.632 75.4695L171.941 71.0701C171.941 71.0701 185.798 75.7928 187.53 75.4522C189.262 75.1116 200.087 68.6221 200.087 68.6221Z" fill="#02C0B0"/>
<path opacity="0.2" d="M200.087 73.6851V79.0198C200.087 79.0198 197.87 79.7531 195.116 80.521C196.132 77.4263 198.667 74.9033 200.087 73.6851Z" fill="black"/>
<path d="M202.397 105.613C202.397 105.613 196.138 138.961 194.469 152.656C192.287 170.52 183.367 196.651 183.367 196.651L186.935 197.575C186.935 197.575 199.51 175.369 201.946 155.387C211.935 134.966 212.737 109.816 212.737 109.816L202.397 105.613Z" fill="#B97964"/>
<path d="M176.75 204.733C177.327 204.468 177.947 204.312 178.581 204.272C178.581 204.272 180.775 202.978 182.951 197.967H185.393C185.806 197.973 186.207 198.105 186.543 198.345C186.878 198.586 187.132 198.923 187.27 199.312C187.31 199.421 187.333 199.536 187.339 199.653C187.314 200.233 187.252 200.812 187.154 201.385C186.792 203.336 186.314 205.264 185.723 207.158L185.307 207.049L186.063 203.405C186.311 202.164 185.012 203.359 184.406 204.612C183.8 205.865 182.876 207.118 180.18 206.5C177.033 205.755 175.763 205.299 176.75 204.733Z" fill="#2E353A"/>
<path d="M208.915 105.082C208.915 105.082 209.694 139.001 210.895 152.748C212.454 170.675 209.129 198.088 209.129 198.088L212.812 198.249C212.812 198.249 220.52 173.925 218.788 153.868C224.336 131.819 219.942 107.05 219.942 107.05L208.915 105.082Z" fill="#B97964"/>
<path d="M203.401 205.854C203.946 205.526 204.547 205.301 205.174 205.19C205.174 205.19 207.218 203.671 208.834 198.452L211.265 198.175C211.678 198.136 212.093 198.226 212.453 198.432C212.813 198.639 213.1 198.953 213.274 199.33C213.326 199.433 213.361 199.544 213.378 199.659C213.415 200.249 213.415 200.841 213.378 201.431C213.23 203.403 212.964 205.364 212.581 207.303L212.154 207.24L212.512 203.533C212.627 202.274 211.461 203.608 210.993 204.913C210.526 206.218 209.746 207.569 206.992 207.251C203.794 206.835 202.483 206.524 203.401 205.854Z" fill="#2E353A"/>
<path d="M221.351 47.3811C221.351 47.3811 223.181 47.4792 224.723 50.4872C226.264 53.4953 224.336 56.8381 223.949 58.4374C223.562 60.0367 221.64 61.4512 224.815 63.8703C227.991 66.2895 229.896 68.8587 227.321 71.4741C224.746 74.0895 227.575 76.093 223.857 78.0329C220.139 79.9728 206.438 77.0687 204.706 73.3159C202.974 69.5631 205.064 66.7109 205.174 65.5909C205.283 64.4708 202.974 63.3218 202.397 59.6556C201.819 55.9894 204.775 55.2042 205.174 53.5299C205.572 51.8556 203.719 49.7424 205.174 46.1801C206.629 42.6179 221.155 41.85 221.351 47.3811Z" fill="#2E353A"/>
<path d="M230.572 97.3281C228.383 97.611 225.855 93.3386 224.024 89.3548C222.46 85.9773 221.368 82.8018 221.368 82.8018L222.523 79.5455L225.537 71.0469C225.537 71.0469 227.644 73.9856 230.814 85.1748C231.322 86.9761 231.934 88.9911 232.494 91.2428C232.49 91.8118 232.666 92.3675 232.996 92.8305C232.996 94.5222 233.199 96.9875 230.572 97.3281Z" fill="#02C0B0"/>
<path opacity="0.2" d="M223.984 89.3547C222.425 85.9772 221.351 82.8017 221.351 82.8017L222.506 79.5454C223.314 81.7971 224.498 85.879 223.984 89.3547Z" fill="black"/>
<path opacity="0.2" d="M232.996 92.8305C231.842 93.5926 230.635 93.581 229.96 92.1896C228.591 89.3779 229.913 86.595 230.849 85.1689C231.363 86.9703 231.951 88.9853 232.511 91.237C232.493 91.8071 232.663 92.3673 232.996 92.8305Z" fill="black"/>
<path d="M198.551 96.2197C198.551 96.2197 210.099 100.354 221.103 99.5856C221.103 99.5856 220.104 85.96 214.331 83.5352C208.557 81.1103 198.551 84.5744 198.551 96.2197Z" fill="#02C0B0"/>
<path opacity="0.2" d="M198.551 96.2197C198.551 96.2197 210.099 100.354 221.103 99.5856C221.103 99.5856 220.104 85.96 214.331 83.5352C208.557 81.1103 198.551 84.5744 198.551 96.2197Z" fill="black"/>
<path d="M200.185 97.1891L219.238 98.8346C219.424 94.1116 220.103 89.421 221.265 84.8395C221.721 83.015 222.292 80.977 223.026 78.6213C223.418 77.3627 223.851 76.0117 224.336 74.5799C224.7 73.4771 225.092 72.3051 225.525 71.0695C222.938 70.2435 220.295 69.6048 217.616 69.1585C214.788 68.6564 211.929 68.3554 209.059 68.2578C205.353 68.2578 201.092 68.6446 201.092 68.6446C201.092 68.6446 200.486 68.789 200.104 72.7208C199.764 76.387 199.423 83.7656 200.185 97.1891Z" fill="#02C0B0"/>
<path d="M200.278 100.047L219.33 101.617C219.631 96.8831 219.856 90.486 221.282 84.8395C221.738 83.015 222.31 80.977 223.043 78.6213C223.435 77.3627 223.868 76.0117 224.353 74.5799C224.717 73.4771 225.11 72.3051 225.543 71.0695C222.955 70.2435 220.312 69.6048 217.633 69.1585C214.806 68.6564 211.946 68.3554 209.077 68.2578C205.37 68.2578 201.109 68.6446 201.109 68.6446C201.109 68.6446 200.503 68.789 200.122 72.7208C199.764 76.387 199.51 86.6235 200.278 100.047Z" fill="#2E353A"/>
<path d="M210.635 72.45C215.335 71.8727 216.744 69.8404 216.744 69.8404C213.765 67.0286 216.242 62.1558 216.242 62.1558L210.589 63.2123C210.722 64.0005 210.795 64.7976 210.809 65.5968C210.855 69.0263 209.302 69.0609 209.302 69.0609C208.309 70.9143 210.635 72.45 210.635 72.45Z" fill="#B97964"/>
<path opacity="0.2" d="M210.589 63.212C210.722 64.0002 210.795 64.7973 210.809 65.5965C214.625 65.5965 216.242 62.1323 216.242 62.1323L210.589 63.212Z" fill="black"/>
<path d="M213.713 47.3982C208.799 47.1327 207.073 49.6788 206.438 54.7191C205.641 61.0238 206.796 65.5965 213.014 64.5804C221.449 63.212 221.877 47.8486 213.713 47.3982Z" fill="#B97964"/>
<path d="M209.625 54.6211C209.192 55.3336 208.675 55.9908 208.084 56.5783C208.217 56.7897 208.406 56.9602 208.63 57.0712C208.854 57.1822 209.105 57.2294 209.354 57.2077L209.625 54.6211Z" fill="#A24E3F"/>
<path d="M212.656 54.384C212.656 54.7882 212.818 55.1288 213.089 55.1519C213.361 55.175 213.597 54.8632 213.632 54.4591C213.667 54.0549 213.47 53.7143 213.199 53.6912C212.928 53.6681 212.691 53.9741 212.656 54.384Z" fill="#2E353A"/>
<path d="M213.314 53.7204L212.46 53.3047C212.46 53.3047 212.841 54.0783 213.314 53.7204Z" fill="#2E353A"/>
<path d="M207.651 53.905C207.622 54.3091 207.812 54.6555 208.084 54.6729C208.355 54.6902 208.592 54.3842 208.626 53.98C208.661 53.5759 208.465 53.2352 208.199 53.2121C207.933 53.189 207.685 53.5008 207.651 53.905Z" fill="#2E353A"/>
<path d="M208.309 53.241L207.454 52.8311C207.454 52.8311 207.835 53.6047 208.309 53.241Z" fill="#2E353A"/>
<path d="M212.893 50.9897C213.284 50.9634 213.676 51.0272 214.038 51.1764C214.4 51.3256 214.724 51.556 214.983 51.8499" stroke="#2E353A" stroke-width="0.72468" stroke-linecap="round" stroke-linejoin="round"/>
<path d="M209.325 50.5909C208.994 50.4883 208.644 50.4614 208.301 50.5124C207.958 50.5634 207.631 50.6909 207.345 50.8854" stroke="#2E353A" stroke-width="0.72468" stroke-linecap="round" stroke-linejoin="round"/>
<path d="M209.96 59.1703C210.162 59.7351 210.322 60.314 210.439 60.9023C210.547 60.9081 210.655 60.9081 210.762 60.9023C212.2 60.8388 212.841 60.325 213.124 59.7938C213.255 59.5264 213.318 59.2311 213.309 58.9335C213.313 58.7657 213.292 58.5982 213.245 58.437C212.386 58.8759 211.443 59.1259 210.48 59.1703C210.15 59.1703 209.96 59.1703 209.96 59.1703Z" fill="#2E353A"/>
<path d="M210.48 59.1706L210.635 59.6787C211.992 59.6152 212.945 59.3842 213.337 58.957C213.342 58.7892 213.321 58.6217 213.274 58.4604C212.404 58.8953 211.451 59.1376 210.48 59.1706Z" fill="white"/>
<path d="M210.762 60.9025C212.2 60.839 212.841 60.3251 213.124 59.7939C212.578 59.8282 212.042 59.9592 211.542 60.1808C211.213 60.3338 210.94 60.5862 210.762 60.9025Z" fill="#DE5753"/>
<path d="M218.632 55.9776C218.632 55.9776 216.553 51.8148 217.073 48.7144C217.073 48.7144 207.552 44.2053 206.53 54.0607C206.53 54.0607 206.057 45.233 214.515 45.4986C222.974 45.7641 222.263 58.1253 217.697 61.5664C217.697 61.5664 219.914 58.593 218.632 55.9776Z" fill="#2E353A"/>
<path d="M217.772 56.9707C217.81 56.69 217.903 56.4197 218.046 56.1751C218.189 55.9305 218.379 55.7166 218.605 55.5455C218.831 55.3744 219.088 55.2495 219.362 55.1781C219.636 55.1066 219.922 55.0899 220.202 55.129C221.715 55.3772 222.269 58.5411 218.47 59.0896C217.887 59.1705 217.61 58.5931 217.772 56.9707Z" fill="#B97964"/>
<path d="M221.103 70.3596C221.103 70.3596 215.583 74.8341 210.48 74.759C205.376 74.684 203.551 68.9162 203.551 68.9162C203.551 68.9162 211.478 66.5548 221.103 70.3596Z" fill="#B97964"/>
<path d="M220.629 69.5171C220.629 69.5171 211.577 85.7292 221.103 99.5858C221.103 99.5858 222.396 82.4903 225.531 71.0471L220.629 69.5171Z" fill="#02C0B0"/>
<path d="M204.019 68.2354C204.019 68.2354 203.938 79.7074 202.287 83.9683C200.636 88.2292 198.54 96.2198 198.54 96.2198C198.54 96.2198 196.946 77.1093 200.076 68.6222L204.019 68.2354Z" fill="#02C0B0"/>
<path d="M217.073 48.7148C217.073 48.7148 213.413 47.4504 210.191 48.7148C206.969 49.9792 207.847 53.3336 206.213 53.9456" stroke="#2E353A" stroke-width="0.5" stroke-linecap="round" stroke-linejoin="round"/>
<path d="M246.131 66.1683L244.619 65.3022L239.059 66.8207L231.553 64.875L229.821 70.5735C229.821 70.5735 229.463 76.9244 229.821 76.9995C230.179 77.0745 238.412 77.5018 238.412 77.5018L242.598 74.8344L246.131 66.1683Z" fill="#E0E0E0"/>
<path d="M229.532 65.3018L226.213 78.4482L236.461 79.5971L243.533 77.6456L247.142 65.3018L239.059 67.3976L229.532 65.3018Z" fill="#02C0B0"/>
<path opacity="0.4" d="M239.059 67.3976L236.461 79.5971L226.213 78.4482L229.532 65.3018L239.059 67.3976Z" fill="white"/>
<path opacity="0.2" d="M239.059 67.3976L236.461 79.5971L243.533 77.6456L247.142 65.3018L239.059 67.3976Z" fill="white"/>
<path d="M230.063 91.5025L234.827 82.3572C234.654 80.9421 234.654 79.5113 234.827 78.0963C235.115 75.7869 235.115 75.273 236.94 75.4636C238.764 75.6541 241.178 75.1576 241.466 75.8331C241.755 76.5086 239.925 81.4565 238.579 82.363L235.779 91.5025H230.063Z" fill="#B97964"/>
<path d="M228.522 96.5255C231.553 99.1063 235.017 96.8892 236.94 89.4818L230.976 88.7139L228.522 96.5255Z" fill="#02C0B0"/>
<path d="M231.282 87.0854L230.063 89.2332L237.615 90.2494V88.0381L231.282 87.0854Z" fill="#2E353A"/>
<path d="M169.326 76.0004L171.416 77.3167L172.784 69.8227L170.573 69.7188L169.326 76.0004Z" fill="#2E353A"/>
<path d="M200.278 100.047L188.269 170.6C188.269 170.6 217.333 174.064 227.182 172.044C227.182 172.044 229.602 121.537 219.319 101.606L200.278 100.047Z" fill="#02C0B0"/>
<path opacity="0.4" d="M200.278 100.047L188.269 170.6C188.269 170.6 217.333 174.064 227.182 172.044C227.182 172.044 229.602 121.537 219.319 101.606L200.278 100.047Z" fill="white"/>
<path d="M161.283 69.0318L158.292 65.943C156.508 64.0781 154.083 61.6359 151.676 59.1821L148.114 55.6025L145.002 52.479L142.802 50.2735C142.536 50.0079 142.323 49.8001 142.184 49.6558C142.124 49.6227 142.057 49.6025 141.989 49.5966C141.92 49.5906 141.851 49.599 141.786 49.6211L142.6 48.8013C142.578 48.8664 142.569 48.9355 142.575 49.0041C142.581 49.0727 142.601 49.1393 142.634 49.1996L143.258 49.8174L145.475 52.0056L148.604 55.106L152.207 58.651C154.672 61.047 157.126 63.4603 158.997 65.2386L162.103 68.212L161.283 69.0318Z" fill="#2E353A"/>
<path d="M183.39 196.651C183.39 196.651 180.342 203.036 178.581 204.272C178.581 204.272 180.936 205.675 183.39 202.54C186.565 198.498 187.339 199.653 187.339 199.653C187.276 198.955 187.149 198.265 186.958 197.592C186.479 196.27 183.39 196.651 183.39 196.651Z" fill="#B97964"/>
<path d="M209.504 196.582C209.504 196.582 208.638 198.949 207.483 201.547C206.954 202.893 206.17 204.124 205.174 205.173C205.174 205.173 207.183 205.825 208.263 204.566C209.342 203.308 211.195 198.793 213.274 199.289C213.164 198.92 213.008 198.565 212.812 198.233C212.5 197.736 209.504 196.582 209.504 196.582Z" fill="#B97964"/>
<path d="M112.629 207.551L113.103 135.815H108.409L108.876 207.551H112.629Z" fill="#02C0B0"/>
<path opacity="0.5" d="M108.876 207.552H112.635L113.01 150.237L113.103 135.959H108.409L108.501 150.237L108.876 207.552Z" fill="white"/>
<path opacity="0.2" d="M113.103 135.959L113.01 150.393H108.501L108.409 135.959H113.103Z" fill="black"/>
<path d="M149.089 207.551L144.875 135.815H140.181L145.337 207.551H149.089Z" fill="#02C0B0"/>
<path opacity="0.5" d="M145.331 207.552H149.089L145.129 140.215L144.875 135.959H140.181L140.492 140.215L145.331 207.552Z" fill="white"/>
<path opacity="0.2" d="M145.129 140.001H140.492L140.181 135.959H144.875L145.129 140.001Z" fill="black"/>
<path d="M76.175 207.551L81.325 135.815H76.6311L72.4164 207.551H76.175Z" fill="#02C0B0"/>
<path opacity="0.3" d="M76.175 207.552L81.0133 140.215L81.325 135.959H76.6311L76.3771 140.215L72.4164 207.552H76.175Z" fill="white"/>
<path opacity="0.2" d="M76.6311 135.959H81.325L81.0133 140.001H76.3771L76.6311 135.959Z" fill="black"/>
<path d="M72.913 133.604H148.593V136.785C148.593 136.949 148.561 137.111 148.498 137.262C148.435 137.413 148.343 137.551 148.227 137.667C148.112 137.782 147.974 137.874 147.823 137.937C147.672 138 147.509 138.032 147.346 138.032H74.1601C73.9963 138.032 73.8341 138 73.6828 137.937C73.5315 137.874 73.394 137.782 73.2782 137.667C73.1624 137.551 73.0706 137.413 73.0079 137.262C72.9452 137.111 72.913 136.949 72.913 136.785V133.604Z" fill="#02C0B0"/>
<path opacity="0.4" d="M72.913 133.604H148.593V136.785C148.593 136.949 148.561 137.111 148.498 137.262C148.435 137.413 148.343 137.551 148.227 137.667C148.112 137.782 147.974 137.874 147.823 137.937C147.672 138 147.509 138.032 147.346 138.032H74.1601C73.9963 138.032 73.8341 138 73.6828 137.937C73.5315 137.874 73.394 137.782 73.2782 137.667C73.1624 137.551 73.0706 137.413 73.0079 137.262C72.9452 137.111 72.913 136.949 72.913 136.785V133.604Z" fill="white"/>
<path opacity="0.2" d="M148.593 133.604H72.913V135.821H148.593V133.604Z" fill="black"/>
<path d="M150.787 134.181H70.719C70.3877 134.18 70.0705 134.047 69.8368 133.812C69.6031 133.577 69.4719 133.26 69.4719 132.928C69.4719 132.597 69.6033 132.28 69.8372 132.046C70.0711 131.813 70.3883 131.681 70.719 131.681H150.787C151.117 131.681 151.435 131.813 151.669 132.046C151.902 132.28 152.034 132.597 152.034 132.928C152.034 133.26 151.903 133.577 151.669 133.812C151.435 134.047 151.118 134.18 150.787 134.181Z" fill="#02C0B0"/>
<path opacity="0.4" d="M150.787 134.181H70.719C70.3877 134.18 70.0705 134.047 69.8368 133.812C69.6031 133.577 69.4719 133.26 69.4719 132.928C69.4719 132.597 69.6033 132.28 69.8372 132.046C70.0711 131.813 70.3883 131.681 70.719 131.681H150.787C151.117 131.681 151.435 131.813 151.669 132.046C151.902 132.28 152.034 132.597 152.034 132.928C152.034 133.26 151.903 133.577 151.669 133.812C151.435 134.047 151.118 134.18 150.787 134.181Z" fill="white"/>
<path d="M106.411 133.604V136.057C106.411 136.317 106.462 136.573 106.561 136.813C106.661 137.052 106.806 137.27 106.989 137.454C107.173 137.637 107.391 137.782 107.63 137.882C107.87 137.981 108.126 138.032 108.386 138.032H147.917C148.249 138.032 148.566 137.901 148.801 137.667C149.036 137.433 149.169 137.116 149.17 136.785V133.604H106.411Z" fill="#02C0B0"/>
<path opacity="0.6" d="M106.411 133.604V136.057C106.411 136.317 106.462 136.573 106.561 136.813C106.661 137.052 106.806 137.27 106.989 137.454C107.173 137.637 107.391 137.782 107.63 137.882C107.87 137.981 108.126 138.032 108.386 138.032H147.917C148.249 138.032 148.566 137.901 148.801 137.667C149.036 137.433 149.169 137.116 149.17 136.785V133.604H106.411Z" fill="white"/>
<path opacity="0.2" d="M149.17 133.604H106.411V135.821H149.17V133.604Z" fill="black"/>
<path d="M151.289 131.681H105.349C105.018 131.681 104.7 131.812 104.465 132.046C104.23 132.28 104.098 132.597 104.096 132.928C104.096 133.26 104.228 133.579 104.463 133.814C104.698 134.049 105.017 134.181 105.349 134.181H151.358C151.533 134.181 151.707 134.144 151.867 134.073C152.027 134.002 152.17 133.898 152.287 133.768C152.404 133.638 152.492 133.484 152.546 133.318C152.6 133.151 152.618 132.975 152.6 132.801C152.556 132.486 152.398 132.199 152.157 131.992C151.915 131.786 151.607 131.675 151.289 131.681Z" fill="#02C0B0"/>
<path opacity="0.6" d="M151.289 131.681H105.349C105.018 131.681 104.7 131.812 104.465 132.046C104.23 132.28 104.098 132.597 104.096 132.928C104.096 133.26 104.228 133.579 104.463 133.814C104.698 134.049 105.017 134.181 105.349 134.181H151.358C151.533 134.181 151.707 134.144 151.867 134.073C152.027 134.002 152.17 133.898 152.287 133.768C152.404 133.638 152.492 133.484 152.546 133.318C152.6 133.151 152.618 132.975 152.6 132.801C152.556 132.486 152.398 132.199 152.157 131.992C151.915 131.786 151.607 131.675 151.289 131.681Z" fill="white"/>
<path d="M115.539 121.323L110.487 130.653" stroke="#2E353A" stroke-width="2" stroke-miterlimit="10"/>
<path d="M67.9477 111.133C67.9477 111.133 72.5088 103.009 73.2594 101.421C74.0099 99.8337 76.0307 88.6445 76.0307 88.6445C75.8454 88.1082 75.7233 87.5521 75.6669 86.9875C75.6669 86.4101 76.0307 83.737 76.0307 83.737C76.0307 83.737 76.0307 83.5234 77.4741 83.0904C78.9175 82.6573 80.5052 82.08 80.6495 82.7266C80.7939 83.3733 80.4301 87.8535 79.9971 88.2866C79.6605 88.6476 79.3516 89.0336 79.0733 89.4413C79.0733 89.4413 77.8551 101.369 77.3009 103.125C76.7466 104.88 72.2028 114.273 72.2028 114.273L67.9477 111.133Z" fill="#E4897B"/>
<path d="M89.2348 121.202C89.2348 121.202 100.609 126.144 102.254 126.721C103.9 127.299 108.842 127.414 108.842 127.414C109.362 127.185 109.906 127.017 110.464 126.912C111.042 126.86 113.726 126.993 113.726 126.993C113.726 126.993 113.946 126.993 114.5 128.378C115.054 129.764 115.764 131.311 115.129 131.507C114.494 131.704 110.008 131.733 109.54 131.34L109.073 130.942C109.073 130.942 102.722 132.454 100.932 132.056C99.1422 131.658 86.4981 128.014 86.4981 128.014L89.2348 121.202Z" fill="#E4897B"/>
<path d="M74.033 112.536C73.6249 114.563 72.771 116.474 71.5331 118.13C69.0967 121.594 65.6614 123.846 64.7318 120.284C63.3173 114.903 69.316 108.159 69.316 108.159L74.033 112.536Z" fill="#02C0B0"/>
<path opacity="0.2" d="M74.033 112.536C73.6249 114.563 72.7709 116.474 71.5331 118.13C71.2585 117.86 71.0468 117.533 70.9131 117.172C70.7794 116.81 70.7269 116.424 70.7594 116.04C71.0943 113.633 74.033 112.536 74.033 112.536Z" fill="black"/>
<path d="M86.1171 108.5C85.7919 109.685 85.1301 110.749 84.2118 111.566C82.8525 112.784 81.1004 113.472 79.2754 113.506C77.4707 113.549 75.7181 112.898 74.3794 111.687C71.7294 109.297 71.8102 106.548 71.4927 101.872C71.1751 97.1952 76.2558 93.6387 81.4001 95.5209C86.5443 97.4031 87.2718 104.302 86.1171 108.5Z" fill="#E4897B"/>
<path d="M79.795 92.5301C79.795 92.5301 83.392 91.2138 85.915 93.3096C88.4381 95.4054 88.2995 100.451 85.915 102.836C85.915 102.836 86.5674 101.97 84.691 99.8741C82.8146 97.7783 79.795 92.5301 79.795 92.5301Z" fill="#2E353A"/>
<path opacity="0.2" d="M84.2118 111.565C82.8525 112.784 81.1004 113.472 79.2754 113.505C79.6139 112.724 80.1637 112.052 80.8631 111.565C81.9486 112.12 83.2938 111.86 84.2118 111.565Z" fill="black"/>
<path d="M85.1356 188.065L84.5236 191.893L83.9636 195.427H78.8424L79.287 190.906L79.7084 186.576L85.1356 188.065Z" fill="#E4897B"/>
<path d="M83.6749 193.423L78.4787 193.094C78.4354 193.089 78.3916 193.093 78.3499 193.105C78.3081 193.117 78.2692 193.138 78.2353 193.165C78.2015 193.192 78.1734 193.226 78.1528 193.265C78.1321 193.303 78.1192 193.345 78.1149 193.388L77.6011 197.487C77.5884 197.703 77.6613 197.915 77.804 198.077C77.9467 198.239 78.1477 198.339 78.3632 198.354C80.1761 198.44 81.0479 198.388 83.3342 198.515C84.7372 198.596 87.5027 198.896 89.4427 198.706C91.3826 198.515 91.1401 196.61 90.3029 196.518C88.3226 196.292 85.6841 194.837 84.4543 193.729C84.2349 193.544 83.9611 193.437 83.6749 193.423Z" fill="#2E353A"/>
<path d="M85.2684 194.312C84.851 194.275 84.4387 194.194 84.0386 194.069C84.019 194.064 84.0014 194.053 83.9881 194.037C83.9747 194.022 83.9662 194.003 83.9636 193.983C83.9612 193.962 83.9642 193.941 83.9723 193.922C83.9804 193.903 83.9933 193.886 84.0098 193.873C84.1656 193.781 85.534 192.967 86.0882 193.221C86.1503 193.252 86.2039 193.297 86.2442 193.354C86.2845 193.41 86.3102 193.475 86.3192 193.544C86.347 193.646 86.3461 193.754 86.3165 193.856C86.287 193.958 86.23 194.05 86.1517 194.121C85.8912 194.293 85.5763 194.361 85.2684 194.312ZM85.9959 193.44C85.7014 193.302 84.9104 193.642 84.3504 193.948C85.1645 194.162 85.7765 194.173 86.0074 193.977C86.0554 193.927 86.0901 193.867 86.1083 193.8C86.1265 193.733 86.1275 193.663 86.1113 193.596C86.1067 193.562 86.0937 193.531 86.0735 193.503C86.0533 193.476 86.0266 193.454 85.9959 193.44Z" fill="#02C0B0"/>
<path d="M84.0386 194.07C84.0238 194.076 84.0073 194.076 83.9924 194.07C83.9648 194.049 83.9463 194.018 83.9405 193.983C83.9405 193.943 83.9405 192.586 84.4139 192.165C84.4785 192.112 84.5537 192.074 84.6344 192.053C84.7152 192.032 84.7995 192.029 84.8816 192.043C84.9737 192.051 85.0607 192.089 85.1287 192.152C85.1966 192.215 85.2417 192.298 85.2568 192.39C85.3261 192.904 84.5756 193.827 84.1021 194.07C84.0923 194.075 84.0814 194.078 84.0704 194.078C84.0593 194.078 84.0484 194.075 84.0386 194.07ZM84.7892 192.268C84.7459 192.266 84.7024 192.272 84.6617 192.287C84.6209 192.302 84.5837 192.325 84.5525 192.355C84.272 192.782 84.1346 193.288 84.1599 193.798C84.6078 193.471 84.92 192.99 85.0374 192.447C85.0374 192.384 84.997 192.303 84.8469 192.274L84.7892 192.268Z" fill="#02C0B0"/>
<path opacity="0.2" d="M85.1356 188.065L84.5236 191.893L79.287 190.906L79.7085 186.576L85.1356 188.065Z" fill="black"/>
<path d="M91.3537 158.984C88.9808 155.854 82.8435 154.267 77.9071 153.476L76.2443 165.86C79.287 166.489 80.5514 168.169 80.7188 168.868C81.5214 172.182 77.6877 189.462 77.6877 189.462L85.661 191.385C85.661 191.385 95.5857 164.567 91.3537 158.984Z" fill="#2E353A"/>
<path opacity="0.2" d="M91.3537 158.984C88.9808 155.854 82.8435 154.267 77.9071 153.476L76.2443 165.86C79.287 166.489 80.5514 168.169 80.7188 168.868C81.5214 172.182 77.6877 189.462 77.6877 189.462L85.661 191.385C85.661 191.385 95.5857 164.567 91.3537 158.984Z" fill="black"/>
<path d="M99.5695 188.065L98.9575 191.893L98.3975 195.427H93.2763L93.7209 190.906L94.1423 186.576L99.5695 188.065Z" fill="#E4897B"/>
<path d="M98.1088 193.423L92.9126 193.094C92.8693 193.089 92.8255 193.093 92.7838 193.105C92.742 193.117 92.7031 193.138 92.6693 193.165C92.6354 193.192 92.6074 193.226 92.5867 193.265C92.566 193.303 92.5532 193.345 92.5489 193.388L92.035 197.487C92.0223 197.703 92.0953 197.915 92.238 198.077C92.3807 198.239 92.5816 198.339 92.7971 198.354C94.61 198.44 95.4818 198.388 97.7682 198.515C99.1711 198.596 101.937 198.896 103.877 198.706C105.816 198.515 105.574 196.61 104.737 196.518C102.757 196.292 100.118 194.837 98.8882 193.729C98.6689 193.544 98.3951 193.437 98.1088 193.423Z" fill="#2E353A"/>
<path d="M99.7023 194.312C99.2849 194.275 98.8726 194.194 98.4725 194.069C98.4529 194.064 98.4353 194.053 98.422 194.037C98.4086 194.022 98.4001 194.003 98.3975 193.983C98.3951 193.962 98.3981 193.941 98.4062 193.922C98.4143 193.903 98.4272 193.886 98.4437 193.873C98.5995 193.781 99.9679 192.967 100.522 193.221C100.584 193.252 100.638 193.297 100.678 193.354C100.718 193.41 100.744 193.475 100.753 193.544C100.781 193.646 100.78 193.754 100.75 193.856C100.721 193.958 100.664 194.05 100.586 194.121C100.325 194.293 100.01 194.361 99.7023 194.312ZM100.43 193.44C100.135 193.302 99.3443 193.642 98.7843 193.948C99.5984 194.162 100.21 194.173 100.441 193.977C100.489 193.927 100.524 193.867 100.542 193.8C100.56 193.733 100.561 193.663 100.545 193.596C100.541 193.562 100.528 193.531 100.507 193.503C100.487 193.476 100.461 193.454 100.43 193.44Z" fill="#02C0B0"/>
<path d="M98.4725 194.07C98.4577 194.076 98.4412 194.076 98.4263 194.07C98.3987 194.049 98.3802 194.018 98.3744 193.983C98.3744 193.943 98.3744 192.586 98.8478 192.165C98.9124 192.112 98.9876 192.074 99.0683 192.053C99.1491 192.032 99.2334 192.029 99.3155 192.043C99.4076 192.051 99.4946 192.089 99.5626 192.152C99.6305 192.215 99.6756 192.298 99.6907 192.39C99.76 192.904 99.0094 193.827 98.536 194.07C98.5262 194.075 98.5153 194.078 98.5043 194.078C98.4932 194.078 98.4823 194.075 98.4725 194.07ZM99.2231 192.268C99.1798 192.266 99.1363 192.272 99.0956 192.287C99.0548 192.302 99.0176 192.325 98.9864 192.355C98.7059 192.782 98.5685 193.288 98.5938 193.798C99.0417 193.471 99.3539 192.99 99.4713 192.447C99.4713 192.384 99.4309 192.303 99.2808 192.274L99.2231 192.268Z" fill="#02C0B0"/>
<path opacity="0.2" d="M99.5695 188.065L98.9575 191.893L93.7209 190.906L94.1424 186.576L99.5695 188.065Z" fill="black"/>
<path d="M74.4892 110.919C74.4892 113.667 74.1658 116.277 72.4742 117.501C74.8138 119.498 77.4268 121.151 80.2338 122.408C83.2361 120.278 81.8504 118.517 81.8504 118.517C79.2235 117.079 80.0433 113.713 80.8632 111.589C80.8632 111.589 80.2165 110.544 76.533 110.532C74.8991 110.503 74.4892 110.919 74.4892 110.919Z" fill="#E4897B"/>
<path d="M60.3151 150.502C60.3151 150.502 54.9456 165.687 70.1647 165.687C85.3838 165.687 86.6136 159.752 85.3261 152.766L60.3151 150.502Z" fill="#2E353A"/>
<path d="M85.3261 152.702C85.3261 152.702 101.55 153.383 105.788 158.966C110.025 164.549 100.095 191.385 100.095 191.385L92.1216 189.462C92.1216 189.462 96.5037 171.166 94.8525 168.799C93.2013 166.432 84.2291 166.287 72.1047 165.652C59.9802 165.017 85.3261 152.702 85.3261 152.702Z" fill="#2E353A"/>
<path d="M70.9788 117.05L72.4915 113.5C72.4915 113.5 81.123 113.811 83.7442 117.743C86.3654 121.675 70.9788 117.05 70.9788 117.05Z" fill="#02C0B0"/>
<path d="M88.5824 122.454C88.8422 126.894 88.5824 136.016 85.3261 152.766L60.3151 150.502C60.4767 146.963 65.7711 134.833 64.6452 118.863C64.6036 118.297 64.6739 117.729 64.8522 117.19C65.0306 116.652 65.3134 116.154 65.6846 115.725C66.0557 115.296 66.5078 114.944 67.0151 114.69C67.5223 114.436 68.0747 114.285 68.6405 114.244H68.7849C70.0146 114.198 77.5145 116.415 81.0364 116.946C82.3932 117.195 83.7095 117.524 84.8296 117.841C85.8579 118.123 86.7723 118.719 87.4452 119.546C88.1181 120.374 88.5156 121.39 88.5824 122.454Z" fill="#02C0B0"/>
<path opacity="0.2" d="M88.5824 122.454C88.8422 126.894 88.5824 136.016 85.3261 152.766L60.3151 150.502C60.4767 146.963 65.7711 134.833 64.6452 118.863C64.6036 118.297 64.6739 117.729 64.8522 117.19C65.0306 116.652 65.3134 116.154 65.6846 115.725C66.0557 115.296 66.5078 114.944 67.0151 114.69C67.5223 114.436 68.0747 114.285 68.6405 114.244H68.7849C70.0146 114.198 77.5145 116.415 81.0364 116.946C82.3932 117.195 83.7095 117.524 84.8296 117.841C85.8579 118.123 86.7723 118.719 87.4452 119.546C88.1181 120.374 88.5156 121.39 88.5824 122.454Z" fill="black"/>
<path d="M84.8296 117.841C82.0814 117.264 81.7754 125.278 83.773 127.587C85.7707 129.896 96.4229 131.628 96.4229 131.628L98.3974 124.412C98.3974 124.412 89.6389 118.88 84.8296 117.841Z" fill="#02C0B0"/>
<path d="M73.4095 110.636C73.4095 110.636 69.8934 109.672 68.2595 102.126C66.6256 94.5795 73.8136 91.2136 81.9601 92.8475C90.1066 94.4814 86.1229 106.127 79.0329 110.636C77.2128 111.274 75.2297 111.274 73.4095 110.636Z" fill="#2E353A"/>
<path d="M82.3066 104.51C82.5019 105.446 83.0471 106.272 83.8308 106.82C84.8296 107.478 85.6033 106.473 85.5628 105.18C85.5167 104.025 84.9451 102.264 83.8308 102.137C82.7165 102.01 82.0294 103.286 82.3066 104.51Z" fill="#E4897B"/>
<path d="M72.6128 207.551H76.2213L76.9256 177.28L77.1335 168.291H71.7063L71.9142 177.28L72.6128 207.551Z" fill="#02C0B0"/>
<path opacity="0.4" d="M72.6128 207.551H76.2213L76.9256 177.28L77.1335 168.291H71.7063L71.9142 177.28L72.6128 207.551Z" fill="white"/>
<path opacity="0.2" d="M77.1335 168.291L76.9256 177.529H71.9142L71.7063 168.291H77.1335Z" fill="black"/>
<path d="M93.49 207.551L91.2094 168.926H86.4924L89.6852 207.551H93.49Z" fill="#02C0B0"/>
<path opacity="0.5" d="M89.6794 207.551H93.49L91.4692 173.314L91.2094 168.869H86.4924L86.8562 173.314L89.6794 207.551Z" fill="white"/>
<path opacity="0.2" d="M86.4924 168.869L86.8562 173.487H91.4692L91.2094 168.869H86.4924Z" fill="black"/>
<path d="M59.1489 207.551L62.3416 168.926H57.6246L55.3499 207.551H59.1489Z" fill="#02C0B0"/>
<path opacity="0.5" d="M59.1604 207.551L61.9779 173.314L62.3416 168.869H57.6246L57.3648 173.314L55.3499 207.551H59.1604Z" fill="white"/>
<path opacity="0.2" d="M62.3416 168.869L61.9779 173.487H57.3648L57.6246 168.869H62.3416Z" fill="black"/>
<path d="M57.9883 163.863H90.8514C91.2305 163.863 91.6059 163.937 91.9562 164.083C92.3064 164.228 92.6246 164.44 92.8927 164.708C93.1608 164.976 93.3734 165.295 93.5185 165.645C93.6636 165.995 93.7382 166.37 93.7382 166.75V170.601H55.1016V166.738C55.1046 165.974 55.4101 165.243 55.9512 164.704C56.4922 164.165 57.2247 163.863 57.9883 163.863Z" fill="#02C0B0"/>
<path d="M70.2579 126.72L67.3978 127.112L73.0645 168.48L75.9246 168.088L70.2579 126.72Z" fill="#02C0B0"/>
<path d="M52.358 126.719L49.4979 127.11L55.1646 168.478L58.0247 168.087L52.358 126.719Z" fill="#02C0B0"/>
<g opacity="0.4">
<path d="M70.2579 126.72L67.3978 127.112L73.0645 168.48L75.9246 168.088L70.2579 126.72Z" fill="white"/>
</g>
<g opacity="0.4">
<path d="M52.358 126.719L49.4979 127.11L55.1646 168.478L58.0247 168.087L52.358 126.719Z" fill="white"/>
</g>
<path d="M94.4253 167.24H54.4087C53.7678 167.24 53.2483 167.76 53.2483 168.401V169.452C53.2483 170.092 53.7678 170.612 54.4087 170.612H94.4253C95.0662 170.612 95.5858 170.092 95.5858 169.452V168.401C95.5858 167.76 95.0662 167.24 94.4253 167.24Z" fill="#02C0B0"/>
<path opacity="0.6" d="M94.4253 167.24H54.4087C53.7678 167.24 53.2483 167.76 53.2483 168.401V169.452C53.2483 170.092 53.7678 170.612 54.4087 170.612H94.4253C95.0662 170.612 95.5858 170.092 95.5858 169.452V168.401C95.5858 167.76 95.0662 167.24 94.4253 167.24Z" fill="white"/>
<path d="M74.2525 140.745H48.5659L46.5105 124.718H72.1971L74.2525 140.745Z" fill="#02C0B0"/>
<path opacity="0.6" d="M74.2525 140.745H48.5659L46.5105 124.718H72.1971L74.2525 140.745Z" fill="white"/>
</svg>
