<svg width="160" height="60" viewBox="0 0 254 218" fill="none" xmlns="http://www.w3.org/2000/svg">
<path d="M224.815 152.447H133.566C131.936 152.447 130.608 151.119 130.608 149.489V16.576C130.608 14.9454 131.936 13.6177 133.566 13.6177H224.815C226.445 13.6177 227.773 14.9454 227.773 16.576V149.489C227.773 151.119 226.445 152.447 224.815 152.447ZM133.566 13.7439C132.006 13.7439 130.734 15.0161 130.734 16.576V149.489C130.734 151.048 132.006 152.321 133.566 152.321H224.815C226.375 152.321 227.647 151.048 227.647 149.489V16.576C227.647 15.0161 226.375 13.7439 224.815 13.7439H133.566Z" fill="#E0E0E0"/>
<path d="M119.592 152.447H28.3487C26.7181 152.447 25.3904 151.119 25.3904 149.489V16.576C25.3904 14.9454 26.7181 13.6177 28.3487 13.6177H119.592C121.223 13.6177 122.551 14.9454 122.551 16.576V149.489C122.551 151.119 121.223 152.447 119.592 152.447ZM28.3487 13.7439C26.7888 13.7439 25.5166 15.0161 25.5166 16.576V149.489C25.5166 151.048 26.7888 152.321 28.3487 152.321H119.592C121.152 152.321 122.424 151.048 122.424 149.489V16.576C122.424 15.0161 121.152 13.7439 119.592 13.7439H28.3487Z" fill="#E0E0E0"/>
<path d="M253.126 183.277H0.709106V183.404H253.126V183.277Z" fill="#E0E0E0"/>
<path d="M34.9015 190.476H26.7939V190.602H34.9015V190.476Z" fill="#E0E0E0"/>
<path d="M113.731 189.108H86.7075V189.235H113.731V189.108Z" fill="#E0E0E0"/>
<path d="M53.7066 195.166H35.4063V195.292H53.7066V195.166Z" fill="#E0E0E0"/>
<path d="M213.517 189.042H191.713V189.169H213.517V189.042Z" fill="#E0E0E0"/>
<path d="M221.21 189.042H218.015V189.169H221.21V189.042Z" fill="#E0E0E0"/>
<path d="M187.548 192.188H160.342V192.314H187.548V192.188Z" fill="#E0E0E0"/>
<path d="M143.956 112.232H115.619V121.405H143.956V112.232Z" fill="#F5F5F5"/>
<path d="M228.106 55.2417H199.77V64.4145H228.106V55.2417Z" fill="#F5F5F5"/>
<path d="M232.029 153.573H203.693V162.746H232.029V153.573Z" fill="#F5F5F5"/>
<path d="M99.7675 0.638672H71.4312V9.8115H99.7675V0.638672Z" fill="#F5F5F5"/>
<path d="M194.318 94.3657H165.982V103.539H194.318V94.3657Z" fill="#EBEBEB"/>
<path d="M205.671 103.276H177.335V112.449H205.671V103.276Z" fill="#F5F5F5"/>
<path d="M228.106 7.20654H199.77V16.3794H228.106V7.20654Z" fill="#EBEBEB"/>
<path d="M239.455 16.1216H211.119V25.2944H239.455V16.1216Z" fill="#F5F5F5"/>
<path d="M85.6019 162.034H57.2656V171.207H85.6019V162.034Z" fill="#EBEBEB"/>
<path d="M96.9506 170.944H68.6143V180.117H96.9506V170.944Z" fill="#F5F5F5"/>
<path d="M49.895 88.5757H21.5587V97.7485H49.895V88.5757Z" fill="#F0F0F0"/>
<path d="M61.2437 97.4863H32.9074V106.659H61.2437V97.4863Z" fill="#F5F5F5"/>
<path d="M118.658 63.627H30.4842V68.5592H118.658V63.627Z" fill="#E6E6E6"/>
<path d="M43.8471 67.3726H39.5308V75.0056H43.8471V67.3726Z" fill="#E6E6E6"/>
<path d="M108.794 67.3726H104.478V75.0056H108.794V67.3726Z" fill="#E6E6E6"/>
<path d="M74.4451 59.3763L68.4073 30.0151H45.6544L39.6166 59.3763C39.1724 61.547 40.6061 63.627 42.5548 63.627H71.512C73.4607 63.627 74.8944 61.547 74.4501 59.3763H74.4451Z" fill="#EBEBEB"/>
<path d="M45.0789 27.5415H57.6291V30.0152H45.0789C44.3974 30.0152 43.8421 29.4599 43.8421 28.7783C43.8421 28.0968 44.3974 27.5415 45.0789 27.5415Z" fill="#E6E6E6"/>
<path d="M68.9777 30.0151H56.4276V27.5415H68.9777C69.6592 27.5415 70.2146 28.0968 70.2146 28.7783C70.2146 29.4598 69.6592 30.0151 68.9777 30.0151Z" fill="#E6E6E6"/>
<path d="M67.0897 30.0151H47.0478L41.4441 59.0784C41.1967 60.3708 42.055 61.5975 43.211 61.5975H70.9314C72.0875 61.5975 72.9457 60.3708 72.6984 59.0784L67.0947 30.0151H67.0897Z" fill="#EBEBEB"/>
<path opacity="0.3" d="M50.3696 28.9399H45.8665C45.6393 28.9399 45.4576 28.7582 45.4576 28.531C45.4576 28.3038 45.6393 28.1221 45.8665 28.1221H50.3696C50.5968 28.1221 50.7785 28.3038 50.7785 28.531C50.7785 28.7582 50.5968 28.9399 50.3696 28.9399Z" fill="white"/>
<path opacity="0.3" d="M51.9699 28.9399H51.5105C51.2833 28.9399 51.1016 28.7582 51.1016 28.531C51.1016 28.3038 51.2833 28.1221 51.5105 28.1221H51.9699C52.1971 28.1221 52.3788 28.3038 52.3788 28.531C52.3788 28.7582 52.1971 28.9399 51.9699 28.9399Z" fill="white"/>
<path d="M72.6984 59.0784L70.0278 45.2358L44.0844 45.3923L41.4441 59.0784C41.1967 60.3707 42.055 61.5975 43.211 61.5975H70.9314C72.0875 61.5975 72.9457 60.3707 72.6984 59.0784Z" fill="#E0E0E0"/>
<path d="M57.0838 44.6807C49.9051 44.6807 44.0844 44.9987 44.0844 45.3925C44.0844 45.7862 49.9051 46.1043 57.0838 46.1043C64.2626 46.1043 70.0833 45.7862 70.0833 45.3925C70.0833 44.9987 64.2626 44.6807 57.0838 44.6807Z" fill="#F5F5F5"/>
<g opacity="0.3">
<path d="M51.2227 34.8362C52.0002 35.235 51.7831 36.3002 51.7175 36.7243C51.2429 39.7886 51.0965 42.0503 50.4503 45.0995C50.2535 46.0385 49.9102 46.9926 49.2438 47.6842C48.5774 48.3809 47.4011 48.6838 46.6489 48.0931C45.8311 47.452 45.9119 46.2051 46.0785 45.1752C46.4167 43.0448 46.755 40.9194 47.0932 38.7891C47.2295 37.9308 47.3709 37.0524 47.7646 36.28C48.1584 35.5026 48.8551 34.8312 49.7133 34.6898C49.7133 34.6898 50.7532 34.5888 51.2227 34.8312V34.8362Z" fill="white"/>
</g>
<path opacity="0.3" d="M48.7996 54.6155C48.4916 56.029 47.4466 56.9983 46.4672 56.7863C45.4879 56.5743 44.9477 55.2516 45.2556 53.8381C45.5636 52.4245 46.6086 51.4553 47.588 51.6673C48.5674 51.8793 49.1075 53.202 48.7996 54.6155Z" fill="white"/>
<path d="M112.02 59.3763L105.982 30.0151H83.2292L77.1914 59.3763C76.7471 61.547 78.1809 63.627 80.1295 63.627H109.087C111.035 63.627 112.469 61.547 112.025 59.3763H112.02Z" fill="#F0F0F0"/>
<path d="M82.6537 27.5415H95.2038V30.0152H82.6537C81.9722 30.0152 81.4168 29.4599 81.4168 28.7783C81.4168 28.0968 81.9722 27.5415 82.6537 27.5415Z" fill="#F0F0F0"/>
<path d="M106.558 30.0151H94.0074V27.5415H106.558C107.239 27.5415 107.794 28.0968 107.794 28.7783C107.794 29.4598 107.239 30.0151 106.558 30.0151Z" fill="#F0F0F0"/>
<path d="M104.669 30.0151H84.6276L79.0239 59.0784C78.7766 60.3708 79.6348 61.5975 80.7909 61.5975H108.511C109.667 61.5975 110.526 60.3708 110.278 59.0784L104.675 30.0151H104.669Z" fill="#F5F5F5"/>
<path opacity="0.3" d="M87.9443 28.9399H83.4412C83.2141 28.9399 83.0323 28.7582 83.0323 28.531C83.0323 28.3038 83.2141 28.1221 83.4412 28.1221H87.9443C88.1715 28.1221 88.3533 28.3038 88.3533 28.531C88.3533 28.7582 88.1715 28.9399 87.9443 28.9399Z" fill="white"/>
<path opacity="0.3" d="M89.5497 28.9399H89.0903C88.8631 28.9399 88.6814 28.7582 88.6814 28.531C88.6814 28.3038 88.8631 28.1221 89.0903 28.1221H89.5497C89.7769 28.1221 89.9586 28.3038 89.9586 28.531C89.9586 28.7582 89.7769 28.9399 89.5497 28.9399Z" fill="white"/>
<path d="M88.8026 34.8362C89.58 35.235 89.3629 36.3002 89.2973 36.7243C88.8228 39.7886 88.6764 42.0503 88.0302 45.0995C87.8333 46.0385 87.49 46.9926 86.8236 47.6842C86.1572 48.3809 84.981 48.6838 84.2288 48.0931C83.411 47.452 83.4917 46.2051 83.6583 45.1752C83.9966 43.0448 84.3348 40.9194 84.673 38.7891C84.8093 37.9308 84.9507 37.0524 85.3445 36.28C85.7382 35.5026 86.4349 34.8312 87.2931 34.6898C87.2931 34.6898 88.3331 34.5888 88.8026 34.8312V34.8362Z" fill="#FAFAFA"/>
<path d="M85.3243 53.803C85.0163 55.2165 83.9713 56.1858 82.9919 55.9738C82.0126 55.7618 81.4724 54.4391 81.7803 53.0256C82.0883 51.612 83.1333 50.6428 84.1127 50.8548C85.092 51.0668 85.6322 52.3895 85.3243 53.803Z" fill="#FAFAFA"/>
<path d="M234.028 214.905C234.028 216.617 186.816 218 128.583 218C70.3509 218 23.1389 216.612 23.1389 214.905C23.1389 213.199 70.3509 211.811 128.583 211.811C186.816 211.811 234.028 213.199 234.028 214.905Z" fill="#F5F5F5"/>
<path d="M214.708 8.23633H145.389V80.4326H214.708V8.23633Z" fill="#263238"/>
<path d="M211.512 11.644H148.585V77.025H211.512V11.644Z" fill="white"/>
<path d="M196.941 35.8121L185.471 44.0479L185.692 44.3554L197.161 36.1197L196.941 35.8121Z" fill="#263238"/>
<path d="M185.073 46.0147L184.876 46.3384L196.684 53.5038L196.881 53.1801L185.073 46.0147Z" fill="#263238"/>
<path d="M180.425 51.1772H180.046V58.9466H180.425V51.1772Z" fill="#263238"/>
<path d="M180.233 63.4952C182.257 63.4952 183.898 61.8543 183.898 59.8301C183.898 57.806 182.257 56.165 180.233 56.165C178.209 56.165 176.568 57.806 176.568 59.8301C176.568 61.8543 178.209 63.4952 180.233 63.4952Z" fill="#01CCBB"/>
<path opacity="0.3" d="M180.233 63.4952C182.257 63.4952 183.898 61.8543 183.898 59.8301C183.898 57.806 182.257 56.165 180.233 56.165C178.209 56.165 176.568 57.806 176.568 59.8301C176.568 61.8543 178.209 63.4952 180.233 63.4952Z" fill="black"/>
<path d="M196.882 58.947C199.459 58.947 201.547 56.8586 201.547 54.2823C201.547 51.7061 199.459 49.6177 196.882 49.6177C194.306 49.6177 192.218 51.7061 192.218 54.2823C192.218 56.8586 194.306 58.947 196.882 58.947Z" fill="#01CCBB"/>
<path d="M199.351 35.9923C199.351 37.4109 198.205 38.5568 196.786 38.5568C195.368 38.5568 194.222 37.4109 194.222 35.9923C194.222 34.5737 195.368 33.4277 196.786 33.4277C198.205 33.4277 199.351 34.5737 199.351 35.9923Z" fill="#01CCBB"/>
<path opacity="0.3" d="M199.351 35.9923C199.351 37.4109 198.205 38.5568 196.786 38.5568C195.368 38.5568 194.222 37.4109 194.222 35.9923C194.222 34.5737 195.368 33.4277 196.786 33.4277C198.205 33.4277 199.351 34.5737 199.351 35.9923Z" fill="black"/>
<path d="M178.746 45.2368L167.714 53.7144L167.945 54.0146L178.977 45.537L178.746 45.2368Z" fill="#263238"/>
<path d="M180.531 43.9026L165.906 34.2098L166.113 33.8968L180.071 43.1454L178.491 27.9852L178.865 27.9448L180.531 43.9026Z" fill="#263238"/>
<path d="M178.678 30.762C180.223 30.762 181.475 29.5099 181.475 27.9652C181.475 26.4206 180.223 25.1685 178.678 25.1685C177.133 25.1685 175.881 26.4206 175.881 27.9652C175.881 29.5099 177.133 30.762 178.678 30.762Z" fill="#01CCBB"/>
<path d="M168.909 56.7679C170.512 55.1651 170.512 52.5664 168.909 50.9635C167.307 49.3607 164.708 49.3607 163.105 50.9635C161.502 52.5664 161.502 55.1651 163.105 56.7679C164.708 58.3707 167.307 58.3707 168.909 56.7679Z" fill="#01CCBB"/>
<path d="M169.6 34.2603C170.313 31.2546 168.455 28.2397 165.449 27.5264C162.443 26.8131 159.428 28.6715 158.715 31.6772C158.002 34.683 159.86 37.6979 162.866 38.4112C165.871 39.1245 168.886 37.2661 169.6 34.2603Z" fill="#01CCBB"/>
<path d="M181.066 52.2983C185.569 52.2983 189.219 48.6481 189.219 44.1453C189.219 39.6424 185.569 35.9922 181.066 35.9922C176.563 35.9922 172.913 39.6424 172.913 44.1453C172.913 48.6481 176.563 52.2983 181.066 52.2983Z" fill="#01CCBB"/>
<path opacity="0.3" d="M181.066 52.2983C185.569 52.2983 189.219 48.6481 189.219 44.1453C189.219 39.6424 185.569 35.9922 181.066 35.9922C176.563 35.9922 172.913 39.6424 172.913 44.1453C172.913 48.6481 176.563 52.2983 181.066 52.2983Z" fill="white"/>
<path opacity="0.4" d="M145.389 80.4276L148.585 77.02H211.512L214.708 80.468L145.389 80.4276Z" fill="black"/>
<path opacity="0.4" d="M145.389 8.23633L148.585 11.644H211.512L214.708 8.23633H145.389Z" fill="black"/>
<path opacity="0.2" d="M214.708 8.23633L211.512 11.644V77.0199L214.708 80.4679V8.23633Z" fill="white"/>
<path opacity="0.2" d="M145.389 8.23633L148.585 11.644V77.0199L145.389 80.4679V8.23633Z" fill="white"/>
<g opacity="0.2">
<path d="M166.577 29.2018C166.279 28.7878 165.244 27.9548 163.139 28.5101C161.877 28.9494 161.155 29.5249 160.393 30.6254C159.631 31.7209 159.429 33.5181 160.05 34.7045C160.242 35.078 160.524 35.4163 160.898 35.6031C161.271 35.7899 161.746 35.81 162.099 35.5778C162.771 35.1386 162.69 34.134 163.074 33.4272C163.452 32.7356 164.245 32.4024 164.972 32.0995C165.699 31.7916 166.481 31.3927 166.764 30.6557C166.946 30.1811 166.875 29.6157 166.577 29.2018Z" fill="white"/>
</g>
<g opacity="0.2">
<path d="M179.279 26.2436C179.163 26.077 178.749 25.7488 177.911 25.9659C177.411 26.1426 177.123 26.3698 176.82 26.8039C176.517 27.2381 176.437 27.955 176.684 28.4245C176.76 28.5709 176.871 28.7072 177.022 28.7829C177.174 28.8586 177.36 28.8637 177.497 28.7728C177.764 28.5961 177.729 28.1973 177.885 27.9196C178.037 27.647 178.35 27.5158 178.638 27.3896C178.925 27.2684 179.238 27.1068 179.349 26.8191C179.42 26.6323 179.395 26.4051 179.274 26.2436H179.279Z" fill="white"/>
</g>
<g opacity="0.2">
<path d="M197.695 34.2856C197.579 34.119 197.165 33.7908 196.327 34.0079C195.827 34.1846 195.539 34.4118 195.237 34.8459C194.934 35.2801 194.853 35.997 195.1 36.4665C195.176 36.6129 195.287 36.7492 195.439 36.8249C195.585 36.9006 195.777 36.9057 195.913 36.8148C196.181 36.6381 196.145 36.2393 196.302 35.9616C196.453 35.689 196.766 35.5578 197.054 35.4316C197.342 35.3104 197.655 35.1488 197.766 34.8611C197.836 34.6743 197.811 34.4471 197.69 34.2856H197.695Z" fill="white"/>
</g>
<g opacity="0.2">
<path d="M198.104 51.4398C197.902 51.1621 197.205 50.6017 195.787 50.9703C194.939 51.2681 194.449 51.6568 193.939 52.3939C193.429 53.131 193.293 54.3426 193.707 55.1402C193.838 55.3926 194.025 55.6198 194.277 55.746C194.53 55.8722 194.848 55.8823 195.085 55.7309C195.54 55.433 195.484 54.7565 195.741 54.282C195.999 53.8175 196.529 53.5954 197.019 53.3884C197.508 53.1814 198.033 52.9139 198.225 52.4191C198.346 52.1011 198.301 51.7174 198.099 51.4398H198.104Z" fill="white"/>
</g>
<g opacity="0.2">
<path d="M181.591 57.3666C181.404 57.1091 180.758 56.5892 179.44 56.9325C178.653 57.2051 178.198 57.5685 177.724 58.2551C177.249 58.9417 177.123 60.0624 177.507 60.8045C177.628 61.0367 177.805 61.2488 178.037 61.3649C178.269 61.481 178.567 61.4911 178.789 61.3497C179.208 61.0771 179.158 60.4461 179.4 60.0069C179.637 59.5727 180.132 59.3658 180.586 59.1739C181.041 58.9821 181.53 58.7347 181.707 58.2753C181.823 57.9775 181.778 57.6241 181.591 57.3666Z" fill="white"/>
</g>
<g opacity="0.2">
<path d="M167.284 51.4247C167.097 51.1673 166.451 50.6473 165.133 50.9906C164.346 51.2632 163.891 51.6267 163.417 52.3132C162.942 52.9998 162.816 54.1205 163.2 54.8626C163.321 55.0949 163.498 55.3069 163.73 55.423C163.962 55.5391 164.26 55.5492 164.482 55.4079C164.901 55.1352 164.851 54.5042 165.093 54.065C165.33 53.6308 165.825 53.4239 166.279 53.232C166.734 53.0402 167.223 52.7928 167.4 52.3334C167.516 52.0356 167.471 51.6822 167.284 51.4247Z" fill="white"/>
</g>
<g opacity="0.2">
<path d="M183.131 38.4051C182.747 37.8699 181.409 36.7946 178.678 37.5065C177.047 38.0719 176.108 38.8241 175.129 40.2427C174.145 41.6612 173.887 43.9885 174.685 45.5182C174.937 45.9978 175.301 46.437 175.785 46.6793C176.27 46.9216 176.886 46.9468 177.335 46.649C178.204 46.0836 178.097 44.7811 178.597 43.8674C179.087 42.9738 180.117 42.5447 181.056 42.1459C181.995 41.7471 183.004 41.2321 183.373 40.283C183.61 39.6671 183.514 38.9402 183.131 38.4051Z" fill="white"/>
</g>
<path d="M163.205 142.103L157.965 150.014L162.725 153.28L169.056 145.475C169.056 145.475 166.628 141.23 163.205 142.098V142.103Z" fill="#263238"/>
<path d="M160.191 131.158L148.065 135.384L149.559 140.927L161.206 138.382C161.206 138.382 163.119 134.061 160.191 131.163V131.158Z" fill="#263238"/>
<path d="M164.553 134.308L166.072 139.185L171.777 143.567L178.421 144.067L196.059 120.577L197.493 118.654L196.039 114.267L209.685 95.7796L201.431 89.5752L188.149 108.547L183.191 108.976L182.01 110.576L164.553 134.308Z" fill="#263238"/>
<path d="M182.01 110.576L196.059 120.577L197.493 118.654L196.039 114.267L209.685 95.7796L201.431 89.5752L188.149 108.547L183.191 108.976L182.01 110.576Z" fill="#263238"/>
<path d="M166.931 143.148L162.276 142.406L160.024 139.15L161.938 132.34L166.931 143.148Z" fill="#263238"/>
<path d="M172.958 144.844L162.569 127.12L158.424 129.598L168.91 147.929L172.958 144.844Z" fill="#263238"/>
<path opacity="0.2" d="M172.958 144.844L162.569 127.12L158.424 129.598L168.91 147.929L172.958 144.844Z" fill="white"/>
<path d="M161.125 199.927L135.373 185.15L133.899 187.902L159 202.446L161.125 199.927Z" fill="#263238"/>
<path opacity="0.1" d="M161.125 199.927L135.373 185.15L133.899 187.902L159 202.446L161.125 199.927Z" fill="white"/>
<path d="M148.418 163.942L145.849 168.617L158.202 175.397L161.499 170.849L148.418 163.942Z" fill="#263238"/>
<path opacity="0.05" d="M148.418 163.942L145.849 168.617L158.202 175.397L161.499 170.849L148.418 163.942Z" fill="white"/>
<path d="M178.002 173.681L174.205 180.087L131.835 156.617L136.272 150.241L178.002 173.681Z" fill="#263238"/>
<path d="M160.787 175.765L145.122 167.163L143.118 170.783L158.444 179.34L160.787 175.765Z" fill="#263238"/>
<path opacity="0.2" d="M178.002 173.681L174.205 180.087L131.835 156.617L136.272 150.241L178.002 173.681Z" fill="white"/>
<path opacity="0.1" d="M160.787 175.765L145.122 167.163L143.118 170.783L158.444 179.34L160.787 175.765Z" fill="white"/>
<path d="M201.628 135.081L187.891 128.553L174.761 153.194L186.816 160.186L187.205 159.979C189.32 158.843 191.874 158.884 193.954 160.085L196.226 161.403C197.67 162.236 198.356 163.947 197.882 165.547C195.484 173.63 190.688 180.788 184.13 186.079C183.131 186.897 181.722 186.998 180.617 186.321L177.234 184.08C175.659 183.015 174.7 181.253 174.66 179.35L156.39 169.344L155.092 171.716L163.821 176.664V187.578L156.193 203.041L163.78 207.373C163.78 207.373 192.556 202.133 203.132 180.284C213.708 158.434 201.623 135.081 201.623 135.081H201.628Z" fill="#263238"/>
<path opacity="0.7" d="M201.628 135.081L187.891 128.553L174.761 153.194L186.816 160.186L187.205 159.979C189.32 158.843 191.874 158.884 193.954 160.085L196.226 161.403C197.67 162.236 198.356 163.947 197.882 165.547C195.484 173.63 190.688 180.788 184.13 186.079C183.131 186.897 181.722 186.998 180.617 186.321L177.234 184.08C175.659 183.015 174.7 181.253 174.66 179.35L156.39 169.344L155.092 171.716L163.821 176.664V187.578L156.193 203.041L163.78 207.373C163.78 207.373 192.556 202.133 203.132 180.284C213.708 158.434 201.623 135.081 201.623 135.081H201.628Z" fill="white"/>
<path opacity="0.2" d="M182.591 157.738L206.242 148.954L206.57 150.675L184.62 158.914L182.591 157.738Z" fill="white"/>
<path opacity="0.2" d="M174.766 153.194L204.026 140.921C204.748 142.905 205.338 144.955 205.818 147.055L181.288 156.975L174.766 153.189V153.194Z" fill="white"/>
<path d="M181.046 150.468C180.723 152.684 182.262 154.744 184.479 155.067C186.695 155.39 188.755 153.85 189.078 151.634C189.401 149.418 187.866 147.363 185.65 147.04C183.434 146.722 181.374 148.257 181.046 150.473V150.468Z" fill="#263238"/>
<path d="M150.932 192.662L147.908 197.206L132.602 188.528L135.404 184.08L150.932 192.662Z" fill="#263238"/>
<path d="M180.177 133.43C179.617 137.221 182.237 140.745 186.028 141.3C189.82 141.861 193.343 139.241 193.904 135.449C194.464 131.658 191.844 128.134 188.053 127.574H188.033C184.251 127.024 180.738 129.644 180.182 133.425L180.177 133.43Z" fill="#263238"/>
<path opacity="0.2" d="M150.932 192.662L147.908 197.206L132.602 188.528L135.404 184.08L150.932 192.662Z" fill="white"/>
<path opacity="0.5" d="M183.61 133.95C183.333 135.843 184.64 137.6 186.533 137.878C188.426 138.155 190.183 136.848 190.461 134.955C190.739 133.062 189.431 131.305 187.538 131.027H187.508C185.625 130.77 183.888 132.072 183.605 133.95H183.61Z" fill="white"/>
<path d="M210.73 212.21H128.578C128.578 209.781 132.461 207.812 137.251 207.812H206.328C208.756 207.812 210.725 209.781 210.725 212.21H210.73Z" fill="#263238"/>
<path d="M190.779 212.22L179.132 191.961C177.85 189.734 175.432 188.417 172.872 188.548C169.349 188.73 166.547 191.567 166.406 195.096L165.724 212.205L190.784 212.225L190.779 212.22Z" fill="#263238"/>
<path opacity="0.5" d="M190.779 212.22L179.132 191.961C177.85 189.734 175.432 188.417 172.872 188.548C169.349 188.73 166.547 191.567 166.406 195.096L165.724 212.205L190.784 212.225L190.779 212.22Z" fill="white"/>
<path d="M169.515 196.029C169.515 198.276 171.338 200.098 173.584 200.098C175.831 200.098 177.653 198.276 177.653 196.029C177.653 193.783 175.831 191.96 173.584 191.96H173.574C171.333 191.965 169.515 193.783 169.515 196.029Z" fill="#263238"/>
<path d="M140.66 147.751L138.482 151.687L162.67 165.072L164.848 161.136L140.66 147.751Z" fill="#01CCBB"/>
<path d="M92.0739 105.25C92.8211 102.095 95.3705 99.5454 98.4802 98.6822C101.59 97.8189 104.836 98.9043 107.093 101.105C109.107 103.069 110.157 105.669 110.298 108.456C110.379 110.001 110.404 111.55 110.425 113.095C110.495 117.755 110.48 122.414 110.465 127.069C110.45 131.724 110.404 136.656 110.354 141.447C110.329 143.951 110.192 146.475 110.263 148.974C110.263 149.009 110.263 149.049 110.263 149.085C110.248 150.059 111.762 150.059 111.778 149.085C111.808 146.863 111.833 144.642 111.858 142.421C111.914 137.539 111.954 132.652 111.974 127.771C111.995 122.889 112.01 118.053 111.939 113.196C111.914 111.586 111.889 109.97 111.808 108.36C111.646 105.356 110.551 102.539 108.466 100.338C106.204 97.9552 102.882 96.5265 99.5808 96.9253C96.2792 97.3242 93.0735 99.4798 91.4883 102.504C91.0996 103.246 90.8017 104.028 90.6099 104.841C90.3827 105.79 91.8467 106.194 92.0689 105.245L92.0739 105.25Z" fill="#01CCBB"/>
<path d="M91.5236 105.098C92.3162 101.756 95.0322 99.0505 98.3288 98.1317C101.625 97.2129 105.094 98.3589 107.497 100.701C109.622 102.771 110.722 105.517 110.869 108.451C110.95 109.995 110.975 111.545 110.995 113.09C111.066 117.75 111.051 122.409 111.035 127.064C111.02 131.718 110.975 136.65 110.924 141.441C110.904 143.128 110.889 144.814 110.869 146.495C110.859 147.302 110.758 148.166 110.839 148.968C110.839 149.004 110.839 149.044 110.839 149.08C110.839 149.322 111.212 149.322 111.217 149.08C111.247 146.858 111.273 144.637 111.298 142.416C111.353 137.534 111.394 132.647 111.414 127.765C111.434 122.884 111.449 118.047 111.379 113.191C111.353 111.58 111.328 109.965 111.247 108.355C111.096 105.502 110.051 102.822 108.072 100.737C105.906 98.4548 102.751 97.1018 99.5858 97.4906C96.4205 97.8793 93.4723 99.9542 91.983 102.786C91.6145 103.483 91.3419 104.225 91.1601 104.992C91.1046 105.23 91.4681 105.331 91.5236 105.093V105.098Z" fill="white"/>
<path d="M232.887 207.969L225.885 173.938H199.518L192.516 207.969C192.001 210.483 193.667 212.896 195.918 212.896H229.48C231.736 212.896 233.402 210.488 232.882 207.969H232.887Z" fill="#01CCBB"/>
<path d="M213.391 173.943H198.846C198.054 173.943 197.413 173.302 197.413 172.509C197.413 171.717 198.054 171.076 198.846 171.076H213.391V173.943Z" fill="#01CCBB"/>
<path d="M212.007 173.943H226.551C227.344 173.943 227.985 173.302 227.985 172.509C227.985 171.717 227.344 171.076 226.551 171.076H212.007V173.943Z" fill="#01CCBB"/>
<g opacity="0.3">
<path d="M213.391 173.943H198.846C198.054 173.943 197.413 173.302 197.413 172.509C197.413 171.717 198.054 171.076 198.846 171.076H213.391V173.943Z" fill="white"/>
<path d="M212.007 173.943H226.551C227.344 173.943 227.985 173.302 227.985 172.509C227.985 171.717 227.344 171.076 226.551 171.076H212.007V173.943Z" fill="white"/>
</g>
<path opacity="0.3" d="M232.887 207.969L225.885 173.938H199.518L192.516 207.969C192.001 210.483 193.667 212.896 195.918 212.896H229.48C231.736 212.896 233.402 210.488 232.882 207.969H232.887Z" fill="white"/>
<path opacity="0.3" d="M224.36 173.943H201.133L194.636 207.625C194.348 209.125 195.343 210.543 196.68 210.543H228.808C230.146 210.543 231.145 209.125 230.853 207.625L224.355 173.943H224.36Z" fill="white"/>
<path opacity="0.3" d="M199.518 173.943L199.29 175.033H226.107L225.885 173.943H199.518Z" fill="black"/>
<path opacity="0.3" d="M204.98 172.696H199.765C199.503 172.696 199.29 172.484 199.29 172.222C199.29 171.959 199.503 171.747 199.765 171.747H204.98C205.242 171.747 205.455 171.959 205.455 172.222C205.455 172.484 205.242 172.696 204.98 172.696Z" fill="white"/>
<path opacity="0.3" d="M206.838 172.696H206.308C206.045 172.696 205.833 172.484 205.833 172.222C205.833 171.959 206.045 171.747 206.308 171.747H206.838C207.1 171.747 207.312 171.959 207.312 172.222C207.312 172.484 207.1 172.696 206.838 172.696Z" fill="white"/>
<path d="M230.858 207.626L227.763 191.582L197.695 191.764L194.636 207.626C194.348 209.125 195.343 210.544 196.68 210.544H228.808C230.146 210.544 231.145 209.125 230.853 207.626H230.858Z" fill="#01CCBB"/>
<path d="M212.764 190.936C204.445 190.936 197.695 191.305 197.695 191.764C197.695 192.223 204.44 192.592 212.764 192.592C221.089 192.592 227.834 192.223 227.834 191.764C227.834 191.305 221.089 190.936 212.764 190.936Z" fill="#01CCBB"/>
<path opacity="0.3" d="M212.764 190.936C204.445 190.936 197.695 191.305 197.695 191.764C197.695 192.223 204.44 192.592 212.764 192.592C221.089 192.592 227.834 192.223 227.834 191.764C227.834 191.305 221.089 190.936 212.764 190.936Z" fill="black"/>
<g opacity="0.3">
<path d="M205.974 179.532C206.873 179.996 206.626 181.228 206.55 181.723C206 185.272 205.828 187.897 205.081 191.431C204.849 192.521 204.455 193.622 203.683 194.429C202.91 195.232 201.547 195.59 200.674 194.904C199.725 194.157 199.821 192.718 200.012 191.526C200.406 189.058 200.795 186.594 201.189 184.126C201.345 183.131 201.512 182.116 201.966 181.218C202.425 180.319 203.228 179.537 204.223 179.375C204.223 179.375 205.429 179.259 205.969 179.537L205.974 179.532Z" fill="white"/>
</g>
<path opacity="0.3" d="M203.163 202.451C202.804 204.087 201.593 205.213 200.457 204.965C199.321 204.718 198.695 203.188 199.053 201.553C199.412 199.917 200.623 198.791 201.759 199.038C202.895 199.286 203.521 200.815 203.163 202.451Z" fill="white"/>
<path opacity="0.5" d="M228.793 209.7H196.665C195.615 209.7 194.777 208.827 194.606 207.727C194.378 209.186 195.358 210.544 196.665 210.544H228.793C230.1 210.544 231.08 209.186 230.853 207.727C230.681 208.827 229.843 209.7 228.793 209.7Z" fill="white"/>
<path d="M38.7433 143.723C38.3798 139.225 38.0163 134.727 37.6529 130.229C37.3146 126.024 36.8098 121.793 36.6785 117.573C36.5776 114.297 37.1127 110.409 40.3285 108.718C41.6461 108.027 43.4181 107.764 44.6801 108.723C45.9422 109.682 46.1997 111.475 46.3814 112.928C46.5632 114.382 46.6944 116.306 45.4677 117.426C44.3722 118.426 42.6961 118.31 41.3937 117.825C38.1123 116.599 37.1935 112.812 38.2385 109.733C39.4248 106.234 42.7668 103.826 45.8564 102.1C49.3297 100.161 53.126 98.8385 57.0334 98.1166C58.8761 97.7784 60.7793 97.5159 62.6522 97.637C64.2626 97.738 66.0598 98.2024 67.019 99.6109C67.9782 101.019 67.958 102.847 67.9277 104.483C67.8873 106.704 67.6804 108.92 67.3017 111.106C67.1149 112.196 66.8827 113.282 66.6202 114.357C66.388 115.301 67.8469 115.705 68.0792 114.761C68.6698 112.348 69.0787 109.894 69.2857 107.421C69.4675 105.295 69.6643 102.993 69.1747 100.893C68.7304 98.99 67.5087 97.5108 65.7014 96.7687C63.8941 96.0266 61.8344 96.0115 59.916 96.1983C55.4179 96.6375 51.0007 97.8693 46.9367 99.8381C43.2515 101.62 39.3743 104.104 37.4206 107.83C35.6638 111.177 35.8456 115.796 39.0411 118.234C41.7874 120.329 46.548 120.39 47.7394 116.533C48.2695 114.817 47.9767 112.802 47.5981 111.081C47.2194 109.359 46.2754 107.607 44.4883 106.911C42.7012 106.214 40.7879 106.674 39.2532 107.587C37.6024 108.572 36.4715 110.187 35.8355 111.979C35.1994 113.772 35.0984 115.831 35.1691 117.765C35.2549 120.087 35.5073 122.409 35.6941 124.726C36.103 129.81 36.517 134.889 36.9259 139.972L37.2288 143.723C37.3045 144.688 38.8241 144.698 38.7433 143.723Z" fill="#01CCBB"/>
<path d="M38.1779 143.724C37.8144 139.226 37.4509 134.728 37.0874 130.229C36.7492 126.024 36.2444 121.794 36.1131 117.573C36.002 114.095 36.6482 110.016 40.0458 108.229C41.5502 107.436 43.5241 107.174 44.9679 108.234C46.4117 109.294 46.7449 111.263 46.9519 112.929C47.1589 114.595 47.2194 116.594 45.8715 117.831C44.6246 118.977 42.7466 118.931 41.2473 118.376C37.6781 117.048 36.5422 112.979 37.6932 109.582C38.9301 105.932 42.3427 103.418 45.5737 101.61C49.0873 99.6466 52.9342 98.2987 56.887 97.5718C60.1078 96.9761 65.3329 96.0825 67.5137 99.3235C68.5234 100.823 68.5335 102.741 68.5032 104.483C68.4578 106.755 68.2457 109.021 67.857 111.258C67.6702 112.348 67.438 113.434 67.1755 114.509C67.1149 114.746 67.4835 114.847 67.539 114.61C68.1195 112.247 68.5234 109.844 68.7253 107.421C68.902 105.351 69.109 103.09 68.6345 101.045C68.2306 99.3134 67.1452 97.9605 65.4894 97.2891C63.7477 96.5823 61.7687 96.5873 59.9261 96.7691C55.534 97.1931 51.2026 98.4098 47.2295 100.333C43.6301 102.075 39.8287 104.478 37.9154 108.123C36.3049 111.187 36.416 115.478 39.3339 117.75C41.747 119.633 46.1189 119.88 47.1992 116.387C47.699 114.766 47.4163 112.863 47.0579 111.238C46.6995 109.612 45.9321 108.108 44.3469 107.467C42.7618 106.825 40.9545 107.249 39.546 108.087C38.0264 108.991 36.9713 110.49 36.3908 112.141C35.7547 113.938 35.6739 115.887 35.7446 117.775C35.8304 120.097 36.0828 122.42 36.2696 124.737C36.6785 129.821 37.0925 134.899 37.5014 139.983L37.8043 143.734C37.8245 143.976 38.2031 143.976 38.1829 143.734L38.1779 143.724Z" fill="white"/>
<path d="M43.3474 159.667L43.8674 142.805L38.6777 141.765L33.488 142.805L34.008 159.667C34.008 159.667 23.2449 164.074 23.8911 174.973C24.3808 183.192 29.5553 186.453 35.2448 187.533C37.5065 187.962 39.8438 187.962 42.1055 187.533C47.795 186.453 52.9695 183.192 53.4592 174.973C54.1054 164.079 43.3423 159.667 43.3423 159.667H43.3474Z" fill="#01CCBB"/>
<path opacity="0.3" d="M43.3474 159.667L43.8674 142.805L38.6777 141.765L33.488 142.805L34.008 159.667C34.008 159.667 23.2449 164.074 23.8911 174.973C24.3808 183.192 29.5553 186.453 35.2448 187.533C37.5065 187.962 39.8438 187.962 42.1055 187.533C47.795 186.453 52.9695 183.192 53.4592 174.973C54.1054 164.079 43.3423 159.667 43.3423 159.667H43.3474Z" fill="white"/>
<path opacity="0.3" d="M42.4286 160.292L42.6557 143.557L38.5161 143.345L34.5279 143.537L34.952 160.348C34.952 160.348 24.5474 164.704 25.1431 174.68C25.6176 182.631 30.878 185.508 36.4312 186.326C37.9204 186.543 39.4349 186.543 40.9242 186.326C46.4723 185.508 51.7377 182.631 52.2122 174.68C52.8079 164.709 42.4286 160.292 42.4286 160.292Z" fill="white"/>
<path d="M43.8976 143.557H33.1346C32.2915 143.557 31.61 142.875 31.61 142.032C31.61 141.189 32.2915 140.508 33.1346 140.508H43.8976C44.7407 140.508 45.4222 141.189 45.4222 142.032C45.4222 142.875 44.7407 143.557 43.8976 143.557Z" fill="#01CCBB"/>
<path opacity="0.3" d="M43.8976 143.557H33.1346C32.2915 143.557 31.61 142.875 31.61 142.032C31.61 141.189 32.2915 140.508 33.1346 140.508H43.8976C44.7407 140.508 45.4222 141.189 45.4222 142.032C45.4222 142.875 44.7407 143.557 43.8976 143.557Z" fill="white"/>
<path opacity="0.3" d="M33.5132 143.557L33.5385 144.481H43.8118L43.8421 143.557H33.5132Z" fill="black"/>
<path opacity="0.3" d="M37.9558 142.078H34.0282C33.8111 142.078 33.6293 141.901 33.6293 141.679C33.6293 141.462 33.806 141.28 34.0282 141.28H37.9558C38.1728 141.28 38.3546 141.457 38.3546 141.679C38.3546 141.896 38.1779 142.078 37.9558 142.078Z" fill="white"/>
<path d="M25.1431 174.68C25.6176 182.631 30.878 185.509 36.4311 186.327C37.9204 186.544 39.4349 186.544 40.9242 186.327C46.4723 185.509 51.7377 182.631 52.2122 174.68H25.1431Z" fill="#01CCBB"/>
<path opacity="0.5" d="M40.9242 185.539C39.4349 185.756 37.9204 185.756 36.4311 185.539C31.0698 184.751 25.971 182.035 25.2087 174.675H25.1431C25.6176 182.626 30.878 185.503 36.4311 186.321C37.9204 186.538 39.4349 186.538 40.9242 186.321C46.4723 185.503 51.7377 182.626 52.2122 174.675H52.1466C51.3843 182.03 46.2855 184.746 40.9242 185.539Z" fill="white"/>
<path d="M52.0456 174.68C52.0456 175.114 46.0179 175.468 38.5817 175.468C31.1455 175.468 25.1178 175.114 25.1178 174.68C25.1178 174.246 31.1455 173.893 38.5817 173.893C46.0179 173.893 52.0456 174.246 52.0456 174.68Z" fill="#01CCBB"/>
<path opacity="0.3" d="M52.0456 174.68C52.0456 175.114 46.0179 175.468 38.5817 175.468C31.1455 175.468 25.1178 175.114 25.1178 174.68C25.1178 174.246 31.1455 173.893 38.5817 173.893C46.0179 173.893 52.0456 174.246 52.0456 174.68Z" fill="black"/>
<g opacity="0.3">
<path d="M34.3513 163.725C34.9873 163.972 35.477 164.543 35.5174 165.224C35.5578 165.906 35.26 166.562 34.8813 167.128C34.5027 167.693 34.0282 168.193 33.6546 168.763C33.2103 169.44 32.9074 170.202 32.5339 170.919C32.1603 171.641 31.6908 172.343 31.0143 172.787C30.3378 173.231 29.4039 173.367 28.7123 172.938C27.8692 172.423 27.6471 171.293 27.7026 170.308C27.8692 167.375 29.9592 164.639 32.7509 163.71C32.7509 163.71 33.6445 163.447 34.3513 163.725Z" fill="white"/>
</g>
<path d="M43.0647 183.752C46.4168 182.641 49.1429 179.966 50.3141 176.639C49.6628 180.173 46.6035 183.166 43.0647 183.752Z" fill="white"/>
<path d="M50.7735 175.467C51.5055 175.467 51.5055 174.332 50.7735 174.332C50.0415 174.332 50.0415 175.467 50.7735 175.467Z" fill="white"/>
<path d="M56.8719 180.541H21.7809V183.085H56.8719V180.541Z" fill="#263238"/>
<path d="M26.4708 182.51H23.7649V212.113H26.4708V182.51Z" fill="#263238"/>
<path d="M54.2064 182.51H51.5005V212.113H54.2064V182.51Z" fill="#263238"/>
<path d="M32.4127 207.989H44.4833C45.2556 207.989 45.8867 208.62 45.8867 209.393V212.048H31.0092V209.393C31.0092 208.62 31.6403 207.989 32.4127 207.989Z" fill="#263238"/>
<path d="M38.718 195.247C38.2586 195.055 37.5973 194.995 37.3752 195.439C37.1379 195.909 37.6276 196.398 37.8093 196.888C38.0971 197.655 37.5923 198.503 36.9814 199.049C36.3706 199.594 35.6184 200.008 35.159 200.684C34.5279 201.613 34.5885 202.916 35.1943 203.865C35.8001 204.814 36.9764 205.707 38.0921 205.844C41.0504 205.46 42.1509 202.784 42.1913 200.543C42.2317 198.302 40.7929 196.105 38.718 195.247Z" fill="#01CCBB"/>
<g opacity="0.3">
<path d="M39.0361 199.998C38.8039 199.816 38.4505 199.927 38.3495 200.205C38.1678 200.705 37.7841 201.331 37.5771 201.512C37.2793 201.78 36.9107 201.982 36.6836 202.315C36.3756 202.77 36.4009 203.411 36.6987 203.875C36.9814 204.314 37.5165 204.733 38.0365 204.834C38.0921 204.844 38.1476 204.844 38.2031 204.834C39.5914 204.607 40.1114 203.325 40.1316 202.25C40.1467 201.386 39.7126 200.533 39.031 200.003L39.0361 199.998Z" fill="black"/>
</g>
<path d="M40.8081 206.581H36.0879V208.262H40.8081V206.581Z" fill="#263238"/>
<path d="M38.5919 204.834H37.6478V206.717H38.5919V204.834Z" fill="#263238"/>
<path d="M122.308 208.594V144.001H112.323H107.062H104.599L107.062 148.141V208.594L104.225 212.113H104.715H125.065L122.308 208.594Z" fill="#01CCBB"/>
<path opacity="0.3" d="M122.308 208.594V144.001H112.323H107.062H104.599L107.062 148.141V208.594L104.225 212.113H104.715H125.065L122.308 208.594Z" fill="white"/>
<path opacity="0.3" d="M114.64 208.115C111.182 208.115 108.38 205.313 108.38 201.855V143.996H120.895V201.855C120.895 205.313 118.093 208.115 114.635 208.115H114.64Z" fill="white"/>
<path d="M123.091 144.46H104.175C103.741 144.46 103.392 144.112 103.392 143.678C103.392 143.244 103.741 142.896 104.175 142.896H123.091C123.525 142.896 123.873 143.244 123.873 143.678C123.873 144.112 123.525 144.46 123.091 144.46Z" fill="#01CCBB"/>
<path opacity="0.3" d="M123.091 144.46H104.175C103.741 144.46 103.392 144.112 103.392 143.678C103.392 143.244 103.741 142.896 104.175 142.896H123.091C123.525 142.896 123.873 143.244 123.873 143.678C123.873 144.112 123.525 144.46 123.091 144.46Z" fill="white"/>
<path opacity="0.3" d="M104.871 144.46L105.366 145.293H122.308V144.46H104.871Z" fill="black"/>
<path d="M114.64 208.115C111.182 208.115 108.38 205.313 108.38 201.855V177.88H120.895V201.855C120.895 205.313 118.093 208.115 114.635 208.115H114.64Z" fill="#01CCBB"/>
<path d="M114.64 178.587C118.097 178.587 120.9 178.271 120.9 177.881C120.9 177.49 118.097 177.174 114.64 177.174C111.183 177.174 108.38 177.49 108.38 177.881C108.38 178.271 111.183 178.587 114.64 178.587Z" fill="#01CCBB"/>
<path opacity="0.3" d="M114.64 178.587C118.097 178.587 120.9 178.271 120.9 177.881C120.9 177.49 118.097 177.174 114.64 177.174C111.183 177.174 108.38 177.49 108.38 177.881C108.38 178.271 111.183 178.587 114.64 178.587Z" fill="black"/>
<path opacity="0.5" d="M114.645 206.989C111.187 206.989 108.385 204.188 108.385 200.729V201.855C108.385 205.313 111.187 208.115 114.645 208.115C118.103 208.115 120.905 205.313 120.905 201.855V200.729C120.905 204.188 118.103 206.989 114.645 206.989Z" fill="white"/>
<g opacity="0.5">
<path d="M110.192 165.916C110.137 171.631 110.086 177.34 110.031 183.055C110.021 183.903 110.021 184.786 110.288 185.559C110.556 186.336 111.182 186.977 111.833 186.851C112.343 186.755 112.747 186.215 112.954 185.609C113.161 184.999 113.196 184.322 113.231 183.661C113.474 178.85 113.403 174.059 113.398 169.243C113.398 167.758 113.247 166.33 113.025 164.876C112.873 163.891 112.171 163.24 111.409 163.301C110.647 163.361 110.177 164.169 110.192 165.921" fill="white"/>
</g>
<path opacity="0.5" d="M112.757 159.434C112.757 160.544 112.146 161.443 111.394 161.443C110.642 161.443 110.031 160.544 110.031 159.434C110.031 158.323 110.642 157.424 111.394 157.424C112.146 157.424 112.757 158.323 112.757 159.434Z" fill="white"/>
<path d="M117.538 154.37C119.128 154.199 120.723 154.199 122.313 154.37C120.723 154.542 119.128 154.542 117.538 154.37Z" fill="#263238"/>
<path d="M117.538 165.411C119.128 165.239 120.723 165.239 122.313 165.411C120.723 165.583 119.128 165.583 117.538 165.411Z" fill="#263238"/>
<path d="M120.304 160.181C120.971 160.009 121.647 160.009 122.313 160.181C121.647 160.353 120.971 160.353 120.304 160.181Z" fill="#263238"/>
<path d="M117.538 175.468C119.128 175.296 120.723 175.296 122.313 175.468C120.723 175.639 119.128 175.639 117.538 175.468Z" fill="#263238"/>
<path d="M120.304 170.238C120.971 170.066 121.647 170.066 122.313 170.238C121.647 170.409 120.971 170.409 120.304 170.238Z" fill="#263238"/>
<path d="M117.538 185.529C119.128 185.357 120.723 185.357 122.313 185.529C120.723 185.7 119.128 185.7 117.538 185.529Z" fill="#263238"/>
<path d="M120.304 180.299C120.971 180.127 121.647 180.127 122.313 180.299C121.647 180.47 120.971 180.47 120.304 180.299Z" fill="#263238"/>
<path d="M117.538 195.585C119.128 195.414 120.723 195.414 122.313 195.585C120.723 195.757 119.128 195.757 117.538 195.585Z" fill="#263238"/>
<path d="M120.304 190.355C120.971 190.183 121.647 190.183 122.313 190.355C121.647 190.526 120.971 190.526 120.304 190.355Z" fill="#263238"/>
<path d="M67.5339 156.546C64.5655 156.546 62.1575 154.138 62.1575 151.17V108.107C62.1575 106.931 63.1116 105.977 64.2879 105.977H70.775C71.9512 105.977 72.9054 106.931 72.9054 108.107V151.17C72.9054 154.138 70.4973 156.546 67.5289 156.546H67.5339Z" fill="#01CCBB"/>
<path opacity="0.3" d="M67.5339 156.546C64.5655 156.546 62.1575 154.138 62.1575 151.17V108.107C62.1575 106.931 63.1116 105.977 64.2879 105.977H70.775C71.9512 105.977 72.9054 106.931 72.9054 108.107V151.17C72.9054 154.138 70.4973 156.546 67.5289 156.546H67.5339Z" fill="white"/>
<path opacity="0.3" d="M63.0762 105.578V150.725C63.0762 153.214 65.0905 155.228 67.5794 155.228C70.0682 155.228 72.0825 153.214 72.0825 150.725V105.578H63.0712H63.0762Z" fill="white"/>
<path d="M63.0762 131.996V150.725C63.0762 153.214 65.0905 155.229 67.5794 155.229C70.0682 155.229 72.0825 153.214 72.0825 150.725V131.996H63.0712H63.0762Z" fill="#01CCBB"/>
<path opacity="0.5" d="M67.5794 154.573C64.722 154.517 63.0763 152.18 63.0763 149.691V150.726C63.0763 153.215 65.0906 155.229 67.5794 155.229C70.0682 155.229 72.0825 153.215 72.0825 150.726V149.691C72.0825 152.18 70.356 154.623 67.5794 154.573Z" fill="white"/>
<path d="M73.0166 107.845H62.0567C61.1984 107.845 60.5018 107.148 60.5018 106.29C60.5018 105.432 61.1984 104.735 62.0567 104.735H73.0166C73.8748 104.735 74.5715 105.432 74.5715 106.29C74.5715 107.148 73.8748 107.845 73.0166 107.845Z" fill="#01CCBB"/>
<path opacity="0.3" d="M73.0166 107.845H62.0567C61.1984 107.845 60.5018 107.148 60.5018 106.29C60.5018 105.432 61.1984 104.735 62.0567 104.735H73.0166C73.8748 104.735 74.5715 105.432 74.5715 106.29C74.5715 107.148 73.8748 107.845 73.0166 107.845Z" fill="white"/>
<path opacity="0.3" d="M72.9054 107.845H62.1575V108.446H72.9054V107.845Z" fill="black"/>
<path d="M72.0875 131.996C72.0875 132.339 70.0732 132.617 67.5844 132.617C65.0956 132.617 63.0813 132.339 63.0813 131.996C63.0813 131.653 65.0956 131.375 67.5844 131.375C70.0732 131.375 72.0875 131.653 72.0875 131.996Z" fill="#01CCBB"/>
<path opacity="0.3" d="M72.0875 131.996C72.0875 132.339 70.0732 132.617 67.5844 132.617C65.0956 132.617 63.0813 132.339 63.0813 131.996C63.0813 131.653 65.0956 131.375 67.5844 131.375C70.0732 131.375 72.0875 131.653 72.0875 131.996Z" fill="black"/>
<path opacity="0.3" d="M65.3177 140.796C64.8078 140.796 64.3989 140.382 64.3989 139.877V129.018C64.3989 128.574 64.7119 128.195 65.1461 128.114C65.7115 128.008 66.2416 128.442 66.2416 129.018V139.877C66.2416 140.387 65.8276 140.796 65.3228 140.796H65.3177Z" fill="white"/>
<path opacity="0.3" d="M65.3985 144.905C65.9533 144.905 66.4031 144.455 66.4031 143.9C66.4031 143.345 65.9533 142.896 65.3985 142.896C64.8437 142.896 64.3939 143.345 64.3939 143.9C64.3939 144.455 64.8437 144.905 65.3985 144.905Z" fill="white"/>
<path d="M70.8305 137.135C70.9062 140.553 70.9113 143.976 70.8305 147.393C70.7497 143.976 70.7548 140.553 70.8305 137.135Z" fill="white"/>
<path d="M75.0711 123.707H60.4966V126.529H75.0711V123.707Z" fill="#263238"/>
<path d="M90.1 156.546C87.1316 156.546 84.7235 154.138 84.7235 151.17V108.107C84.7235 106.931 85.6777 105.977 86.8539 105.977H93.3411C94.5173 105.977 95.4715 106.931 95.4715 108.107V151.17C95.4715 154.138 93.0634 156.546 90.095 156.546H90.1Z" fill="#01CCBB"/>
<path opacity="0.3" d="M90.1 156.546C87.1316 156.546 84.7235 154.138 84.7235 151.17V108.107C84.7235 106.931 85.6777 105.977 86.8539 105.977H93.3411C94.5173 105.977 95.4715 106.931 95.4715 108.107V151.17C95.4715 154.138 93.0634 156.546 90.095 156.546H90.1Z" fill="white"/>
<path opacity="0.3" d="M85.6373 105.578V150.725C85.6373 153.214 87.6516 155.228 90.1404 155.228C92.6292 155.228 94.6435 153.214 94.6435 150.725V105.578H85.6322H85.6373Z" fill="white"/>
<path d="M85.6373 131.996V150.725C85.6373 153.214 87.6516 155.229 90.1404 155.229C92.6292 155.229 94.6435 153.214 94.6435 150.725V131.996H85.6322H85.6373Z" fill="#01CCBB"/>
<path opacity="0.5" d="M90.1454 154.573C87.2881 154.517 85.6423 152.18 85.6423 149.691V150.726C85.6423 153.215 87.6566 155.229 90.1454 155.229C92.6343 155.229 94.6486 153.215 94.6486 150.726V149.691C94.6486 152.18 92.922 154.623 90.1454 154.573Z" fill="white"/>
<path d="M95.5774 107.845H84.6175C83.7593 107.845 83.0626 107.148 83.0626 106.29C83.0626 105.432 83.7593 104.735 84.6175 104.735H95.5774C96.4357 104.735 97.1323 105.432 97.1323 106.29C97.1323 107.148 96.4357 107.845 95.5774 107.845Z" fill="#01CCBB"/>
<path opacity="0.3" d="M95.5774 107.845H84.6175C83.7593 107.845 83.0626 107.148 83.0626 106.29C83.0626 105.432 83.7593 104.735 84.6175 104.735H95.5774C96.4357 104.735 97.1323 105.432 97.1323 106.29C97.1323 107.148 96.4357 107.845 95.5774 107.845Z" fill="white"/>
<path opacity="0.3" d="M95.4715 107.845H84.7235V108.446H95.4715V107.845Z" fill="black"/>
<path d="M94.6486 131.996C94.6486 132.339 92.6343 132.617 90.1454 132.617C87.6566 132.617 85.6423 132.339 85.6423 131.996C85.6423 131.653 87.6566 131.375 90.1454 131.375C92.6343 131.375 94.6486 131.653 94.6486 131.996Z" fill="#01CCBB"/>
<path opacity="0.3" d="M94.6486 131.996C94.6486 132.339 92.6343 132.617 90.1454 132.617C87.6566 132.617 85.6423 132.339 85.6423 131.996C85.6423 131.653 87.6566 131.375 90.1454 131.375C92.6343 131.375 94.6486 131.653 94.6486 131.996Z" fill="black"/>
<path opacity="0.3" d="M87.8838 140.796C87.3739 140.796 86.965 140.382 86.965 139.877V129.018C86.965 128.574 87.278 128.195 87.7121 128.114C88.2776 128.008 88.8076 128.442 88.8076 129.018V139.877C88.8076 140.387 88.3937 140.796 87.8888 140.796H87.8838Z" fill="white"/>
<path opacity="0.3" d="M87.9646 144.905C88.5194 144.905 88.9692 144.455 88.9692 143.9C88.9692 143.345 88.5194 142.896 87.9646 142.896C87.4097 142.896 86.96 143.345 86.96 143.9C86.96 144.455 87.4097 144.905 87.9646 144.905Z" fill="white"/>
<path d="M93.3915 137.135C93.4672 140.553 93.4723 143.976 93.3915 147.393C93.3107 143.976 93.3158 140.553 93.3915 137.135Z" fill="white"/>
<path d="M97.6372 123.707H83.0626V126.529H97.6372V123.707Z" fill="#263238"/>
<path d="M79.0694 100.288C81.1549 100.288 82.8455 98.597 82.8455 96.5115C82.8455 94.426 81.1549 92.7354 79.0694 92.7354C76.9839 92.7354 75.2932 94.426 75.2932 96.5115C75.2932 98.597 76.9839 100.288 79.0694 100.288Z" fill="#263238"/>
<path d="M80.2961 98.8589H77.8376V211.81H80.2961V98.8589Z" fill="#263238"/>
<path d="M99.3183 211.81H58.8205C58.8205 210.392 59.9715 209.241 61.3901 209.241H96.7436C98.1622 209.241 99.3132 210.392 99.3132 211.81H99.3183Z" fill="#263238"/>
<path d="M72.5772 125.348H84.4206C84.9103 125.348 84.9103 124.59 84.4206 124.59H72.5772C72.0875 124.59 72.0875 125.348 72.5772 125.348Z" fill="#263238"/>
</svg>
