<svg width="277" height="212" viewBox="0 0 277 212" fill="none" xmlns="http://www.w3.org/2000/svg">
<path d="M138 195C214.215 195 276 189.627 276 183C276 176.373 214.215 171 138 171C61.7847 171 0 176.373 0 183C0 189.627 61.7847 195 138 195Z" fill="#EDF0FC"/>
<path d="M234.704 177.639C234.704 177.639 214.13 135.873 276.891 117.667C276.891 117.667 281.263 180.957 234.704 177.639Z" fill="#FF914D"/>
<mask id="mask0_815_33048" style="mask-type:luminance" maskUnits="userSpaceOnUse" x="231" y="117" width="47" height="61">
<path d="M234.704 177.639C234.704 177.639 214.13 135.873 276.891 117.667C276.891 117.667 281.263 180.957 234.704 177.639Z" fill="white"/>
</mask>
<g mask="url(#mask0_815_33048)">
<path d="M285.308 127.389L284.948 126.787C272.541 134.172 261.248 136.765 257.911 137.412C261.019 133.741 264.084 130.377 266.858 127.465C268.105 127.232 276.656 125.457 285.337 118.989L284.918 118.428C277.61 123.873 270.42 125.937 267.719 126.565C273.745 120.299 278.2 116.328 278.333 116.21L277.867 115.686C277.732 115.806 273.181 119.863 267.048 126.254C267.64 118.3 271.545 110.508 271.586 110.427L270.959 110.111C270.916 110.196 266.671 118.657 266.296 127.041C263.515 129.966 260.444 133.34 257.33 137.022C257.554 126.611 262.011 114.413 262.057 114.287L261.399 114.045C261.35 114.176 256.603 127.159 256.617 137.87C253.615 141.46 250.594 145.324 247.771 149.341C247.221 134.344 251.654 118.876 251.7 118.718L251.025 118.524C250.977 118.686 246.329 134.897 247.107 150.293C245.018 153.317 243.05 156.42 241.298 159.551C238.192 143.43 242.195 128.796 242.237 128.647L241.561 128.459C241.518 128.612 237.328 143.898 240.77 160.513C239.053 163.668 237.564 166.844 236.396 169.989C232.424 158.714 231.652 142.565 231.825 141.633L231.133 141.507C230.948 142.516 231.664 159.364 236.023 171.024C234.957 174.073 234.2 177.088 233.849 180.018L234.546 180.101C234.885 177.272 235.608 174.362 236.626 171.416C237.444 171.586 239.808 171.989 243.874 171.989C244.195 171.989 244.528 171.987 244.871 171.982C250.121 171.9 258.98 171.099 271.366 167.752L271.182 167.077C250.061 172.785 238.975 171.157 236.858 170.746C238.033 167.481 239.568 164.177 241.352 160.894C241.918 160.95 243.389 161.069 245.534 161.069C252.286 161.069 265.555 159.872 277.097 151.659L276.689 151.088C262.213 161.39 244.976 160.5 241.72 160.225C243.513 156.989 245.54 153.78 247.701 150.654C249.867 150.434 269.148 148.225 281.993 138.212L281.561 137.661C269.667 146.931 252.147 149.434 248.232 149.891C251.09 145.815 254.157 141.892 257.204 138.254C258.858 137.975 271.397 135.668 285.308 127.389Z" fill="#F9AB43"/>
</g>
<path opacity="0.1" d="M276.891 117.667C273.178 118.744 269.767 119.906 266.617 121.134C267.975 125.2 268.718 129.594 268.718 134.18C268.718 155.018 253.404 171.91 234.512 171.91C233.911 171.91 233.312 171.892 232.718 171.858C233.628 175.448 234.704 177.639 234.704 177.639C281.263 180.957 276.891 117.667 276.891 117.667Z" fill="#0046A0"/>
<path d="M48.0978 173.225C48.0978 173.225 11.6442 181.918 8.45996 129.528C8.45996 129.528 58.952 137.349 48.0978 173.225Z" fill="#F9AB43"/>
<mask id="mask1_815_33048" style="mask-type:luminance" maskUnits="userSpaceOnUse" x="8" y="129" width="42" height="45">
<path d="M48.0978 173.225C48.0978 173.225 11.6442 181.918 8.45996 129.528C8.45996 129.529 58.952 137.349 48.0978 173.225Z" fill="white"/>
</mask>
<g mask="url(#mask1_815_33048)">
<path d="M17.5868 124.664L17.0505 124.839C20.6543 135.869 20.6899 145.174 20.6074 147.903C18.2742 144.816 16.1751 141.819 14.3781 139.128C14.4164 138.11 14.5371 131.098 10.9927 123.148L10.4782 123.377C13.4605 130.068 13.8088 136.066 13.8234 138.293C9.96888 132.46 7.63892 128.266 7.56965 128.14L7.07556 128.412C7.14548 128.539 9.52624 132.824 13.4612 138.764C7.31766 136.887 1.88788 132.444 1.83181 132.398L1.47229 132.832C1.531 132.881 7.4265 137.709 13.9454 139.493C15.7503 142.191 17.8566 145.195 20.1978 148.289C12.0587 146.263 3.2666 140.605 3.17557 140.547L2.86882 141.019C2.96249 141.08 12.3213 147.105 20.7381 148.998C23.0258 151.987 25.5266 155.04 28.1818 157.964C16.3044 155.73 4.93821 149.51 4.82211 149.446L4.54967 149.94C4.66841 150.006 16.5795 156.528 28.8111 158.653C30.8172 160.827 32.9064 162.919 35.0549 164.848C21.8404 164.416 11.054 158.68 10.9445 158.622L10.6767 159.118C10.7895 159.178 22.0554 165.176 35.7166 165.432C37.8909 167.337 40.1219 169.067 42.3859 170.541C32.8246 171.649 20.0025 169.384 19.3006 169.084L19.079 169.603C19.8389 169.928 33.1999 172.361 43.132 171.018C45.3386 172.394 47.5729 173.522 49.8118 174.318L50.0005 173.787C47.8388 173.019 45.6803 171.935 43.5469 170.615C43.826 170.004 44.5615 168.225 45.2812 165.04C45.3379 164.789 45.3953 164.528 45.4521 164.259C46.3175 160.132 47.2576 153.051 46.8229 142.756L46.2595 142.78C47.0016 160.337 43.7593 168.729 43.0614 170.315C40.705 168.815 38.3817 167.025 36.1183 165.045C36.2615 164.612 36.6164 163.481 36.9964 161.801C38.1923 156.512 39.6027 145.907 35.1955 135.408L34.6756 135.626C40.2037 148.794 36.4515 162.136 35.6585 164.637C33.4348 162.658 31.2724 160.5 29.199 158.253C29.4101 156.518 31.0903 141.024 25.5002 129.184L24.991 129.425C30.1661 140.387 29.0288 154.554 28.6944 157.701C25.9983 154.739 23.4605 151.64 21.1418 148.607C21.2176 147.261 21.6273 137.031 17.5868 124.664Z" fill="#FF914D"/>
</g>
<path opacity="0.1" d="M8.45996 129.529C8.64797 132.628 8.9567 135.507 9.36372 138.193C12.7986 137.851 16.382 138.05 19.9845 138.864C36.3536 142.566 46.9103 157.562 43.5638 172.359C43.457 172.83 43.3369 173.295 43.205 173.754C46.1867 173.68 48.0978 173.226 48.0978 173.226C58.952 137.35 8.45996 129.529 8.45996 129.529Z" fill="#0046A0"/>
<path d="M242.15 149.99C242.15 152.892 239.775 155.267 236.872 155.267H39.2051C36.3026 155.267 33.9277 152.892 33.9277 149.99V30.877C33.9277 27.9744 36.3026 25.5996 39.2051 25.5996H236.872C239.775 25.5996 242.15 27.9744 242.15 30.877V149.99Z" fill="#848A9A"/>
<path d="M236.272 31.959H39.8046V148.907H236.272V31.959Z" fill="#D0DBF7"/>
<path d="M170.364 155.268H105.714V171.459H170.364V155.268Z" fill="#8397ED"/>
<path d="M201.305 180.753C189.482 171.208 165.59 164.682 138.039 164.682C110.488 164.682 86.5955 171.208 74.7722 180.753H201.305Z" fill="#848A9A"/>
<path d="M74.7722 182.402C75.9022 182.402 77.0322 182.402 78.1623 182.402C81.237 182.402 84.3124 182.402 87.3871 182.402C91.9118 182.402 96.4365 182.402 100.961 182.402C106.505 182.402 112.049 182.402 117.593 182.402C123.666 182.402 129.739 182.402 135.812 182.402C141.916 182.402 148.019 182.402 154.122 182.402C159.839 182.402 165.556 182.402 171.273 182.402C176.104 182.402 180.934 182.402 185.765 182.402C189.225 182.402 192.685 182.402 196.144 182.402C197.791 182.402 199.445 182.442 201.092 182.402C201.163 182.4 201.234 182.402 201.305 182.402C203.427 182.402 203.431 179.104 201.305 179.104C200.175 179.104 199.045 179.104 197.915 179.104C194.84 179.104 191.765 179.104 188.69 179.104C184.165 179.104 179.64 179.104 175.116 179.104C169.572 179.104 164.028 179.104 158.484 179.104C152.411 179.104 146.338 179.104 140.265 179.104C134.161 179.104 128.058 179.104 121.955 179.104C116.238 179.104 110.521 179.104 104.804 179.104C99.973 179.104 95.1429 179.104 90.3121 179.104C86.8521 179.104 83.3921 179.104 79.9328 179.104C78.2856 179.104 76.6325 179.064 74.9853 179.104C74.914 179.106 74.8428 179.104 74.7722 179.104C72.65 179.104 72.6461 182.402 74.7722 182.402Z" fill="#8397ED"/>
<path d="M225.542 40.0947H50.5356V141.277H225.542V40.0947Z" fill="white"/>
<path d="M225.542 40.0947H50.5356V49.8447H225.542V40.0947Z" fill="#E2E6FF"/>
<path d="M59.043 45.1939C59.043 46.4262 58.0442 47.4249 56.8119 47.4249C55.5797 47.4249 54.5809 46.4262 54.5809 45.1939C54.5809 43.9616 55.5797 42.9629 56.8119 42.9629C58.0436 42.9629 59.043 43.9616 59.043 45.1939Z" fill="#EB725F"/>
<path d="M66.5549 45.1939C66.5549 46.4262 65.5562 47.4249 64.3239 47.4249C63.0916 47.4249 62.0929 46.4262 62.0929 45.1939C62.0929 43.9616 63.0916 42.9629 64.3239 42.9629C65.5562 42.9629 66.5549 43.9616 66.5549 45.1939Z" fill="#F9AB43"/>
<path d="M74.0681 45.1939C74.0681 46.4262 73.0694 47.4249 71.8371 47.4249C70.6048 47.4249 69.6061 46.4262 69.6061 45.1939C69.6061 43.9616 70.6048 42.9629 71.8371 42.9629C73.0694 42.9629 74.0681 43.9616 74.0681 45.1939Z" fill="#848A9A"/>
<path d="M199.875 92.6425C199.875 98.6726 194.693 103.606 188.359 103.606H90.9927C84.6585 103.606 79.4768 98.6726 79.4768 92.6425C79.4768 86.6124 84.6592 81.6787 90.9927 81.6787H188.359C194.693 81.6787 199.875 86.6124 199.875 92.6425Z" fill="#E2E6FF"/>
<path d="M103.561 97.811L99.5656 94.0931C100.169 93.2395 100.48 92.2196 100.442 91.1569C100.395 89.8738 99.8525 88.6857 98.9125 87.811C97.9725 86.9363 96.7488 86.4805 95.4657 86.5266C94.1826 86.5728 92.9946 87.1157 92.1205 88.0557C91.2458 88.9958 90.7893 90.2201 90.8355 91.5025C90.8816 92.7856 91.4245 93.9737 92.3646 94.8484C93.3046 95.7231 94.5283 96.179 95.8114 96.1328C96.8735 96.0945 97.8682 95.7113 98.6763 95.0483L102.672 98.7662L103.561 97.811ZM93.2538 93.8932C92.5691 93.256 92.1739 92.3905 92.1403 91.4564C92.1067 90.5216 92.4391 89.6304 93.0764 88.9456C93.713 88.2609 94.5791 87.8658 95.5132 87.8321C96.448 87.7985 97.3392 88.131 98.0239 88.7675C98.7087 89.4048 99.1038 90.2703 99.1374 91.2044C99.1711 92.1391 98.8386 93.0304 98.2014 93.7151C97.5641 94.3998 96.6986 94.795 95.7645 94.8286C94.8298 94.8629 93.9379 94.5304 93.2538 93.8932Z" fill="#848A9A"/>
<path d="M120.887 93.5862C121.511 93.5862 122.017 93.0803 122.017 92.4562C122.017 91.8321 121.511 91.3262 120.887 91.3262C120.263 91.3262 119.757 91.8321 119.757 92.4562C119.757 93.0803 120.263 93.5862 120.887 93.5862Z" fill="#B6C3F2"/>
<path d="M134.081 93.5862C134.705 93.5862 135.211 93.0803 135.211 92.4562C135.211 91.8321 134.705 91.3262 134.081 91.3262C133.457 91.3262 132.951 91.8321 132.951 92.4562C132.951 93.0803 133.457 93.5862 134.081 93.5862Z" fill="#B6C3F2"/>
<path d="M147.274 93.5862C147.898 93.5862 148.404 93.0803 148.404 92.4562C148.404 91.8321 147.898 91.3262 147.274 91.3262C146.65 91.3262 146.144 91.8321 146.144 92.4562C146.144 93.0803 146.65 93.5862 147.274 93.5862Z" fill="#B6C3F2"/>
<path d="M160.468 93.5862C161.092 93.5862 161.598 93.0803 161.598 92.4562C161.598 91.8321 161.092 91.3262 160.468 91.3262C159.844 91.3262 159.338 91.8321 159.338 92.4562C159.338 93.0803 159.844 93.5862 160.468 93.5862Z" fill="#B6C3F2"/>
<path d="M264.504 0.597656H177.396V96.4343H264.504V0.597656Z" fill="#F5F9FF"/>
<path d="M264.504 0.597656H177.396V11.4011H264.504V0.597656Z" fill="#E2E6FF"/>
<path d="M186.822 6.24882C186.822 7.61435 185.715 8.72128 184.35 8.72128C182.984 8.72128 181.877 7.61435 181.877 6.24882C181.877 4.8833 182.984 3.77637 184.35 3.77637C185.715 3.77637 186.822 4.88396 186.822 6.24882Z" fill="#FF914D"/>
<path d="M195.147 6.24882C195.147 7.61435 194.04 8.72128 192.675 8.72128C191.309 8.72128 190.202 7.61435 190.202 6.24882C190.202 4.8833 191.309 3.77637 192.675 3.77637C194.04 3.77637 195.147 4.88396 195.147 6.24882Z" fill="#F9AB43"/>
<path d="M203.472 6.24882C203.472 7.61435 202.365 8.72128 200.999 8.72128C199.634 8.72128 198.527 7.61435 198.527 6.24882C198.527 4.8833 199.634 3.77637 200.999 3.77637C202.365 3.77637 203.472 4.88396 203.472 6.24882Z" fill="#6E7FDD"/>
<path d="M238.925 60.6747L235.328 64.2725L267.573 96.5176L271.171 92.9198L238.925 60.6747Z" fill="#FF914D"/>
<path d="M240.044 58.6214L233.274 65.3906L242.71 74.8261L249.479 68.0569L240.044 58.6214Z" fill="#848A9A"/>
<g opacity="0.2">
<path d="M237.13 62.4738C228.696 70.9077 214.972 70.9077 206.538 62.4738C198.104 54.0399 198.104 40.316 206.538 31.8821C214.972 23.4482 228.696 23.4482 237.13 31.8821C245.564 40.316 245.564 54.0399 237.13 62.4738Z" fill="#F5F9FF"/>
</g>
<path d="M239.183 64.5271C229.617 74.0931 214.051 74.0937 204.485 64.5271C194.919 54.9606 194.919 39.3949 204.485 29.829C214.051 20.2631 229.617 20.2624 239.183 29.829C248.749 39.3949 248.749 54.9606 239.183 64.5271ZM208.082 33.4262C200.499 41.0091 200.5 53.3463 208.082 60.9286C215.664 68.5109 228.002 68.5116 235.584 60.9286C243.167 53.3457 243.167 41.0085 235.584 33.4262C228.002 25.8439 215.665 25.8432 208.082 33.4262Z" fill="#FF914D"/>
<path d="M83.02 111.322H43.6157V182.508H104.395V131.799L83.02 111.322Z" fill="#FF914D"/>
<path d="M83.0199 111.322L104.395 131.799H83.0199V111.322Z" fill="#F4AEA6"/>
<path d="M67.5231 138.68C67.5231 140.816 66.2816 142.549 64.7505 142.549C63.2194 142.549 61.9779 140.816 61.9779 138.68C61.9779 136.543 63.2194 134.811 64.7505 134.811C66.2816 134.811 67.5231 136.543 67.5231 138.68Z" fill="white"/>
<path d="M83.1834 142.549C84.7146 142.549 85.956 140.816 85.956 138.68C85.956 136.543 84.7146 134.811 83.1834 134.811C81.6521 134.811 80.4108 136.543 80.4108 138.68C80.4108 140.816 81.6521 142.549 83.1834 142.549Z" fill="white"/>
<path d="M66.2557 150.294C67.4094 149.031 69.0138 148.037 70.6108 147.461C74.652 146.004 78.5586 147.526 81.6366 150.294C82.4586 151.033 83.6796 149.819 82.8537 149.077C79.4412 146.009 75.0148 144.207 70.4756 145.691C68.4847 146.341 66.4635 147.515 65.0379 149.077C64.2931 149.893 65.5069 151.114 66.2557 150.294Z" fill="white"/>
<path d="M227.698 116.305L190.936 116.062L190.498 182.473L247.199 182.848L247.512 135.539L227.698 116.305Z" fill="#D0DBF7"/>
<path d="M227.698 116.306L247.512 135.54L227.572 135.408L227.698 116.306Z" fill="#E3EBFC"/>
<path d="M231.094 141.061L227.592 137.513L219.092 145.901L210.702 137.401L207.154 140.903L215.543 149.403L207.043 157.792L210.544 161.34L219.045 152.951L227.435 161.451L230.982 157.95L222.593 149.45L231.094 141.061Z" fill="#EEF4FF"/>
<path d="M42.3464 65.0798L20.3463 54.0527L0.424805 93.7974L34.3597 110.806L48.55 82.4939L42.3464 65.0798Z" fill="#D0DBF7"/>
<path d="M42.3466 65.0801L48.5502 82.4941L36.6167 76.5122L42.3466 65.0801Z" fill="#E3EBFC"/>
<path d="M37.0581 80.9492L36.0059 77.7828L28.419 80.3034L25.8978 72.7158L22.7313 73.768L25.2519 81.3549L17.665 83.8755L18.7172 87.0426L26.3041 84.522L28.8254 92.1089L31.9925 91.0567L29.4712 83.4698L37.0581 80.9492Z" fill="#EEF4FF"/>
<path d="M49.4822 160.693H51.8803L54.267 164.422V160.693H56.8718V168.714H54.4736L52.0869 164.973V168.714H49.4822V160.693ZM61.8043 168.886C60.9857 168.886 60.2437 168.71 59.5782 168.358C58.9203 168.006 58.4002 167.517 58.0177 166.889C57.6352 166.254 57.444 165.528 57.444 164.709C57.444 163.891 57.6352 163.164 58.0177 162.529C58.4002 161.894 58.9203 161.401 59.5782 161.049C60.2437 160.697 60.9857 160.521 61.8043 160.521C62.6151 160.521 63.3495 160.697 64.0074 161.049C64.6729 161.401 65.1969 161.894 65.5794 162.529C65.9619 163.164 66.1531 163.891 66.1531 164.709C66.1531 165.528 65.9619 166.254 65.5794 166.889C65.1969 167.517 64.6729 168.006 64.0074 168.358C63.3495 168.71 62.6151 168.886 61.8043 168.886ZM61.8043 166.327C62.2632 166.327 62.6419 166.182 62.9402 165.891C63.2386 165.6 63.3877 165.206 63.3877 164.709C63.3877 164.212 63.2386 163.818 62.9402 163.527C62.6419 163.237 62.2632 163.091 61.8043 163.091C61.3376 163.091 60.9551 163.237 60.6568 163.527C60.3585 163.818 60.2093 164.212 60.2093 164.709C60.2093 165.206 60.3585 165.6 60.6568 165.891C60.9628 166.182 61.3453 166.327 61.8043 166.327ZM70.1676 160.693H73.2428C74.1302 160.693 74.9066 160.854 75.5721 161.175C76.2453 161.496 76.7655 161.955 77.1327 162.552C77.4999 163.149 77.6834 163.853 77.6834 164.663C77.6834 165.994 77.2857 167.004 76.4901 167.693C75.7022 168.373 74.6198 168.714 73.2428 168.714H70.1676V160.693ZM73.4264 166.189C74.4209 166.189 74.9181 165.681 74.9181 164.663C74.9181 164.197 74.788 163.841 74.528 163.596C74.2679 163.344 73.9007 163.218 73.4264 163.218H72.8871V166.189H73.4264ZM80.4907 160.693H83.061L86.2738 168.714H83.4855L82.9692 167.314H80.5825L80.0661 168.714H77.2778L80.4907 160.693ZM82.3725 165.317L81.7758 163.47L81.1791 165.317H82.3725ZM87.0708 162.977H85.0168V160.693H91.8441V162.977H89.7902V168.714H87.0708V162.977ZM93.7917 160.693H96.362L99.5748 168.714H96.7865L96.2702 167.314H93.8835L93.3671 168.714H90.5788L93.7917 160.693ZM95.6735 165.317L95.0768 163.47L94.4801 165.317H95.6735Z" fill="white"/>
</svg>
